<svg version="1.1" xmlns="http://www.w3.org/2000/svg" xmlns:xlink="http://www.w3.org/1999/xlink" width="773" height="596"><defs/><g><g><rect fill="#C0C0C0" stroke="none" x="55" y="311" width="80" height="32" transform="matrix(1 0 0 1 -38 -38)" fill-opacity="0.2"/></g><g><rect fill="#FFFFD8" stroke="none" x="48" y="304" width="80" height="32" transform="matrix(1 0 0 1 -38 -38)"/></g><g><path fill="none" stroke="#000000" paint-order="fill stroke markers" d=" M 10 266 L 90 266 L 90 298 L 10 298 L 10 266 Z Z" stroke-miterlimit="10" stroke-dasharray=""/></g><g><g><path fill="none" stroke="none"/><text fill="#000000" stroke="none" font-family="Arial" font-size="15px" font-style="normal" font-weight="bold" text-decoration="undefined" x="88.5" y="318.5" text-anchor="middle" dominant-baseline="central" transform="matrix(1 0 0 1 -38 -38)">Student</text></g></g><g><rect fill="#C0C0C0" stroke="none" x="167" y="311" width="80" height="32" transform="matrix(1 0 0 1 -38 -38)" fill-opacity="0.2"/></g><g><rect fill="#FFFFD8" stroke="none" x="160" y="304" width="80" height="32" transform="matrix(1 0 0 1 -38 -38)"/></g><g><path fill="none" stroke="#000000" paint-order="fill stroke markers" d=" M 122 266 L 202 266 L 202 298 L 122 298 L 122 266 Z Z" stroke-miterlimit="10" stroke-dasharray=""/></g><g><g><path fill="none" stroke="none"/><text fill="#000000" stroke="none" font-family="Arial" font-size="15px" font-style="normal" font-weight="bold" text-decoration="undefined" x="200.5" y="318.5" text-anchor="middle" dominant-baseline="central" transform="matrix(1 0 0 1 -38 -38)">Teacher</text></g></g><g><rect fill="#C0C0C0" stroke="none" x="407" y="167" width="80" height="32" transform="matrix(1 0 0 1 -38 -38)" fill-opacity="0.2"/></g><g><rect fill="#FFFFD8" stroke="none" x="400" y="160" width="80" height="32" transform="matrix(1 0 0 1 -38 -38)"/></g><g><path fill="none" stroke="#000000" paint-order="fill stroke markers" d=" M 362 122 L 442 122 L 442 154 L 362 154 L 362 122 Z Z" stroke-miterlimit="10" stroke-dasharray=""/></g><g><g><path fill="none" stroke="none"/><text fill="#000000" stroke="none" font-family="Arial" font-size="15px" font-style="normal" font-weight="bold" text-decoration="undefined" x="440.5" y="174.5" text-anchor="middle" dominant-baseline="central" transform="matrix(1 0 0 1 -38 -38)">Course</text></g></g><g><rect fill="#C0C0C0" stroke="none" x="423" y="311" width="80" height="32" transform="matrix(1 0 0 1 -38 -38)" fill-opacity="0.2"/></g><g><rect fill="#FFFFD8" stroke="none" x="416" y="304" width="80" height="32" transform="matrix(1 0 0 1 -38 -38)"/></g><g><path fill="none" stroke="#000000" paint-order="fill stroke markers" d=" M 378 266 L 458 266 L 458 298 L 378 298 L 378 266 Z Z" stroke-miterlimit="10" stroke-dasharray=""/></g><g><g><path fill="none" stroke="none"/><text fill="#000000" stroke="none" font-family="Arial" font-size="15px" font-style="normal" font-weight="bold" text-decoration="undefined" x="456.5" y="318.5" text-anchor="middle" dominant-baseline="central" transform="matrix(1 0 0 1 -38 -38)">Exercise</text></g></g><g><rect fill="#C0C0C0" stroke="none" x="119" y="167" width="64" height="32" transform="matrix(1 0 0 1 -38 -38)" fill-opacity="0.2"/></g><g><rect fill="#FFFFD8" stroke="none" x="112" y="160" width="64" height="32" transform="matrix(1 0 0 1 -38 -38)"/></g><g><path fill="none" stroke="#000000" paint-order="fill stroke markers" d=" M 74 122 L 138 122 L 138 154 L 74 154 L 74 122 Z Z" stroke-miterlimit="10" stroke-dasharray=""/></g><g><g><path fill="none" stroke="none"/><text fill="#000000" stroke="none" font-family="Arial" font-size="15px" font-style="normal" font-weight="bold" text-decoration="undefined" x="144.5" y="174.5" text-anchor="middle" dominant-baseline="central" transform="matrix(1 0 0 1 -38 -38)">User</text></g></g><g><path fill="none" stroke="#000000" paint-order="fill stroke markers" d=" M 74 266 L 74 234 L 106 234 L 106 154" stroke-miterlimit="10" stroke-dasharray=""/></g><g><path fill="#FFFFFF" stroke="none" paint-order="stroke fill markers" d=" M 114.41903551203197 174.3253497152483 L 106 154 L 97.58096448796803 174.3253497152483"/></g><g><path fill="none" stroke="#000000" paint-order="fill stroke markers" d=" M 114.41903551203197 174.3253497152483 L 106 154 L 97.58096448796803 174.3253497152483 L 114.41903551203197 174.3253497152483" stroke-miterlimit="10" stroke-dasharray=""/></g><g><path fill="none" stroke="#000000" paint-order="fill stroke markers" d=" M 138 266 L 138 234 L 106 234 L 106 154" stroke-miterlimit="10" stroke-dasharray=""/></g><g><path fill="#FFFFFF" stroke="none" paint-order="stroke fill markers" d=" M 114.41903551203197 174.3253497152483 L 106 154 L 97.58096448796803 174.3253497152483"/></g><g><path fill="none" stroke="#000000" paint-order="fill stroke markers" d=" M 114.41903551203197 174.3253497152483 L 106 154 L 97.58096448796803 174.3253497152483 L 114.41903551203197 174.3253497152483" stroke-miterlimit="10" stroke-dasharray=""/></g><g><path fill="none" stroke="#000000" paint-order="fill stroke markers" d=" M 50 266 L 50 202 L 370 202 L 370 154" stroke-miterlimit="10" stroke-dasharray=""/></g><g><path fill="#FFFFFF" stroke="none" paint-order="stroke fill markers" d=" M 374.209517756016 164.16267485762415 L 370 154 L 365.790482243984 164.16267485762415 L 370 176"/></g><g><path fill="none" stroke="#000000" paint-order="fill stroke markers" d=" M 374.209517756016 164.16267485762415 L 370 154 L 365.790482243984 164.16267485762415 L 370 176 L 374.209517756016 164.16267485762415" stroke-miterlimit="10" stroke-dasharray=""/></g><g><rect fill="#ffffff" stroke="none" x="208" y="222" width="49.6142578125" height="15" transform="matrix(1 0 0 1 -38 -38)"/></g><g><g><path fill="none" stroke="none"/><text fill="#000000" stroke="none" font-family="Arial" font-size="15px" font-style="normal" font-weight="normal" text-decoration="undefined" x="232.80712890625" y="229.5" text-anchor="middle" dominant-baseline="central" transform="matrix(1 0 0 1 -38 -38)">+enrols</text></g></g><g><rect fill="#ffffff" stroke="none" x="64" y="279" width="22.5146484375" height="15" transform="matrix(1 0 0 1 -38 -38)"/></g><g><g><path fill="none" stroke="none"/><text fill="#000000" stroke="none" font-family="Arial" font-size="15px" font-style="normal" font-weight="normal" text-decoration="undefined" x="75.25732421875" y="286.5" text-anchor="middle" dominant-baseline="central" transform="matrix(1 0 0 1 -38 -38)">0..*</text></g></g><g><rect fill="#ffffff" stroke="none" x="379" y="206" width="22.5146484375" height="15" transform="matrix(1 0 0 1 -38 -38)"/></g><g><g><path fill="none" stroke="none"/><text fill="#000000" stroke="none" font-family="Arial" font-size="15px" font-style="normal" font-weight="normal" text-decoration="undefined" x="390.25732421875" y="213.5" text-anchor="middle" dominant-baseline="central" transform="matrix(1 0 0 1 -38 -38)">0..*</text></g></g><g><path fill="none" stroke="#000000" paint-order="fill stroke markers" d=" M 186 266 L 186 234 L 402 234 L 402 154" stroke-miterlimit="10" stroke-dasharray=""/></g><g><path fill="#FFFFFF" stroke="none" paint-order="stroke fill markers" d=" M 406.209517756016 164.16267485762415 L 402 154 L 397.790482243984 164.16267485762415 L 402 176"/></g><g><path fill="none" stroke="#000000" paint-order="fill stroke markers" d=" M 406.209517756016 164.16267485762415 L 402 154 L 397.790482243984 164.16267485762415 L 402 176 L 406.209517756016 164.16267485762415" stroke-miterlimit="10" stroke-dasharray=""/></g><g><rect fill="#ffffff" stroke="none" x="309" y="256" width="61.29638671875" height="15" transform="matrix(1 0 0 1 -38 -38)"/></g><g><g><path fill="none" stroke="none"/><text fill="#000000" stroke="none" font-family="Arial" font-size="15px" font-style="normal" font-weight="normal" text-decoration="undefined" x="339.648193359375" y="263.5" text-anchor="middle" dominant-baseline="central" transform="matrix(1 0 0 1 -38 -38)">+teaches</text></g></g><g><rect fill="#ffffff" stroke="none" x="231" y="279" width="22.5146484375" height="15" transform="matrix(1 0 0 1 -38 -38)"/></g><g><g><path fill="none" stroke="none"/><text fill="#000000" stroke="none" font-family="Arial" font-size="15px" font-style="normal" font-weight="normal" text-decoration="undefined" x="242.25732421875" y="286.5" text-anchor="middle" dominant-baseline="central" transform="matrix(1 0 0 1 -38 -38)">1..*</text></g></g><g><rect fill="#ffffff" stroke="none" x="444" y="205" width="22.5146484375" height="15" transform="matrix(1 0 0 1 -38 -38)"/></g><g><g><path fill="none" stroke="none"/><text fill="#000000" stroke="none" font-family="Arial" font-size="15px" font-style="normal" font-weight="normal" text-decoration="undefined" x="455.25732421875" y="212.5" text-anchor="middle" dominant-baseline="central" transform="matrix(1 0 0 1 -38 -38)">0..*</text></g></g><g><rect fill="#C0C0C0" stroke="none" x="215" y="471" width="80" height="32" transform="matrix(1 0 0 1 -38 -38)" fill-opacity="0.2"/></g><g><rect fill="#FFFFD8" stroke="none" x="208" y="464" width="80" height="32" transform="matrix(1 0 0 1 -38 -38)"/></g><g><path fill="none" stroke="#000000" paint-order="fill stroke markers" d=" M 170 426 L 250 426 L 250 458 L 170 458 L 170 426 Z Z" stroke-miterlimit="10" stroke-dasharray=""/></g><g><g><path fill="none" stroke="none"/><text fill="#000000" stroke="none" font-family="Arial" font-size="15px" font-style="normal" font-weight="bold" text-decoration="undefined" x="248.5" y="478.5" text-anchor="middle" dominant-baseline="central" transform="matrix(1 0 0 1 -38 -38)">Proposal</text></g></g><g><path fill="none" stroke="#000000" paint-order="fill stroke markers" d=" M 170 442 L 50 442 L 50 298" stroke-miterlimit="10" stroke-dasharray=""/></g><g><path fill="#000000" stroke="none" paint-order="stroke fill markers" d=" M 54.209517756015984 308.16267485762415 L 50 298 L 45.790482243984016 308.16267485762415 L 50 320"/></g><g><path fill="none" stroke="#000000" paint-order="fill stroke markers" d=" M 54.209517756015984 308.16267485762415 L 50 298 L 45.790482243984016 308.16267485762415 L 50 320 L 54.209517756015984 308.16267485762415" stroke-miterlimit="10" stroke-dasharray=""/></g><g><rect fill="#ffffff" stroke="none" x="96" y="456" width="47.63671875" height="15" transform="matrix(1 0 0 1 -38 -38)"/></g><g><g><path fill="none" stroke="none"/><text fill="#000000" stroke="none" font-family="Arial" font-size="15px" font-style="normal" font-weight="normal" text-decoration="undefined" x="119.818359375" y="463.5" text-anchor="middle" dominant-baseline="central" transform="matrix(1 0 0 1 -38 -38)">+fulfills</text></g></g><g><rect fill="#ffffff" stroke="none" x="192" y="463" width="8.34228515625" height="15" transform="matrix(1 0 0 1 -38 -38)"/></g><g><g><path fill="none" stroke="none"/><text fill="#000000" stroke="none" font-family="Arial" font-size="15px" font-style="normal" font-weight="normal" text-decoration="undefined" x="196.171142578125" y="470.5" text-anchor="middle" dominant-baseline="central" transform="matrix(1 0 0 1 -38 -38)">1</text></g></g><g><rect fill="#ffffff" stroke="none" x="96" y="349" width="8.34228515625" height="15" transform="matrix(1 0 0 1 -38 -38)"/></g><g><g><path fill="none" stroke="none"/><text fill="#000000" stroke="none" font-family="Arial" font-size="15px" font-style="normal" font-weight="normal" text-decoration="undefined" x="100.171142578125" y="356.5" text-anchor="middle" dominant-baseline="central" transform="matrix(1 0 0 1 -38 -38)">1</text></g></g><g><path fill="none" stroke="#000000" paint-order="fill stroke markers" d=" M 218 426 L 218 290 L 378 290" stroke-miterlimit="10" stroke-dasharray=""/></g><g><path fill="#000000" stroke="none" paint-order="stroke fill markers" d=" M 367.83732514237585 294.209517756016 L 378 290 L 367.83732514237585 285.790482243984 L 356 290"/></g><g><path fill="none" stroke="#000000" paint-order="fill stroke markers" d=" M 367.83732514237585 294.209517756016 L 378 290 L 367.83732514237585 285.790482243984 L 356 290 L 367.83732514237585 294.209517756016" stroke-miterlimit="10" stroke-dasharray=""/></g><g><rect fill="#ffffff" stroke="none" x="264" y="334" width="70.458984375" height="15" transform="matrix(1 0 0 1 -38 -38)"/></g><g><g><path fill="none" stroke="none"/><text fill="#000000" stroke="none" font-family="Arial" font-size="15px" font-style="normal" font-weight="normal" text-decoration="undefined" x="299.2294921875" y="341.5" text-anchor="middle" dominant-baseline="central" transform="matrix(1 0 0 1 -38 -38)">+relates to</text></g></g><g><rect fill="#ffffff" stroke="none" x="265" y="440" width="8.34228515625" height="15" transform="matrix(1 0 0 1 -38 -38)"/></g><g><g><path fill="none" stroke="none"/><text fill="#000000" stroke="none" font-family="Arial" font-size="15px" font-style="normal" font-weight="normal" text-decoration="undefined" x="269.171142578125" y="447.5" text-anchor="middle" dominant-baseline="central" transform="matrix(1 0 0 1 -38 -38)">1</text></g></g><g><rect fill="#ffffff" stroke="none" x="390" y="333" width="8.34228515625" height="15" transform="matrix(1 0 0 1 -38 -38)"/></g><g><g><path fill="none" stroke="none"/><text fill="#000000" stroke="none" font-family="Arial" font-size="15px" font-style="normal" font-weight="normal" text-decoration="undefined" x="394.171142578125" y="340.5" text-anchor="middle" dominant-baseline="central" transform="matrix(1 0 0 1 -38 -38)">1</text></g></g><g><rect fill="#C0C0C0" stroke="none" x="743" y="391" width="64" height="32" transform="matrix(1 0 0 1 -38 -38)" fill-opacity="0.2"/></g><g><rect fill="#FFFFD8" stroke="none" x="736" y="384" width="64" height="32" transform="matrix(1 0 0 1 -38 -38)"/></g><g><path fill="none" stroke="#000000" paint-order="fill stroke markers" d=" M 698 346 L 762 346 L 762 378 L 698 378 L 698 346 Z Z" stroke-miterlimit="10" stroke-dasharray=""/></g><g><g><path fill="none" stroke="none"/><text fill="#000000" stroke="none" font-family="Arial" font-size="15px" font-style="normal" font-weight="bold" text-decoration="undefined" x="768.5" y="398.5" text-anchor="middle" dominant-baseline="central" transform="matrix(1 0 0 1 -38 -38)">File</text></g></g><g><rect fill="#C0C0C0" stroke="none" x="519" y="535" width="192" height="32" transform="matrix(1 0 0 1 -38 -38)" fill-opacity="0.2"/></g><g><rect fill="#FFFFD8" stroke="none" x="512" y="528" width="192" height="32" transform="matrix(1 0 0 1 -38 -38)"/></g><g><path fill="none" stroke="#000000" paint-order="fill stroke markers" d=" M 474 490 L 666 490 L 666 522 L 474 522 L 474 490 Z Z" stroke-miterlimit="10" stroke-dasharray=""/></g><g><g><path fill="none" stroke="none"/><text fill="#000000" stroke="none" font-family="Arial" font-size="15px" font-style="normal" font-weight="bold" text-decoration="undefined" x="608.5" y="542.5" text-anchor="middle" dominant-baseline="central" transform="matrix(1 0 0 1 -38 -38)">ExerciseTemplateFile</text></g></g><g><rect fill="#C0C0C0" stroke="none" x="519" y="599" width="192" height="32" transform="matrix(1 0 0 1 -38 -38)" fill-opacity="0.2"/></g><g><rect fill="#FFFFD8" stroke="none" x="512" y="592" width="192" height="32" transform="matrix(1 0 0 1 -38 -38)"/></g><g><path fill="none" stroke="#000000" paint-order="fill stroke markers" d=" M 474 554 L 666 554 L 666 586 L 474 586 L 474 554 Z Z" stroke-miterlimit="10" stroke-dasharray=""/></g><g><g><path fill="none" stroke="none"/><text fill="#000000" stroke="none" font-family="Arial" font-size="15px" font-style="normal" font-weight="bold" text-decoration="undefined" x="608.5" y="606.5" text-anchor="middle" dominant-baseline="central" transform="matrix(1 0 0 1 -38 -38)">ExerciseSolutionFile</text></g></g><g><rect fill="#C0C0C0" stroke="none" x="519" y="471" width="224" height="32" transform="matrix(1 0 0 1 -38 -38)" fill-opacity="0.2"/></g><g><rect fill="#FFFFD8" stroke="none" x="512" y="464" width="224" height="32" transform="matrix(1 0 0 1 -38 -38)"/></g><g><path fill="none" stroke="#000000" paint-order="fill stroke markers" d=" M 474 426 L 698 426 L 698 458 L 474 458 L 474 426 Z Z" stroke-miterlimit="10" stroke-dasharray=""/></g><g><g><path fill="none" stroke="none"/><text fill="#000000" stroke="none" font-family="Arial" font-size="15px" font-style="normal" font-weight="bold" text-decoration="undefined" x="624.5" y="478.5" text-anchor="middle" dominant-baseline="central" transform="matrix(1 0 0 1 -38 -38)">ExerciseStudentProposalFile</text></g></g><g><path fill="none" stroke="#000000" paint-order="fill stroke markers" d=" M 666 506 L 730 506 L 730 378" stroke-miterlimit="10" stroke-dasharray=""/></g><g><path fill="#FFFFFF" stroke="none" paint-order="stroke fill markers" d=" M 738.419035512032 398.3253497152483 L 730 378 L 721.580964487968 398.3253497152483"/></g><g><path fill="none" stroke="#000000" paint-order="fill stroke markers" d=" M 738.419035512032 398.3253497152483 L 730 378 L 721.580964487968 398.3253497152483 L 738.419035512032 398.3253497152483" stroke-miterlimit="10" stroke-dasharray=""/></g><g><path fill="none" stroke="#000000" paint-order="fill stroke markers" d=" M 666 570 L 730 570 L 730 378" stroke-miterlimit="10" stroke-dasharray=""/></g><g><path fill="#FFFFFF" stroke="none" paint-order="stroke fill markers" d=" M 738.419035512032 398.3253497152483 L 730 378 L 721.580964487968 398.3253497152483"/></g><g><path fill="none" stroke="#000000" paint-order="fill stroke markers" d=" M 738.419035512032 398.3253497152483 L 730 378 L 721.580964487968 398.3253497152483 L 738.419035512032 398.3253497152483" stroke-miterlimit="10" stroke-dasharray=""/></g><g><path fill="none" stroke="#000000" paint-order="fill stroke markers" d=" M 698 442 L 730 442 L 730 378" stroke-miterlimit="10" stroke-dasharray=""/></g><g><path fill="#FFFFFF" stroke="none" paint-order="stroke fill markers" d=" M 738.419035512032 398.3253497152483 L 730 378 L 721.580964487968 398.3253497152483"/></g><g><path fill="none" stroke="#000000" paint-order="fill stroke markers" d=" M 738.419035512032 398.3253497152483 L 730 378 L 721.580964487968 398.3253497152483 L 738.419035512032 398.3253497152483" stroke-miterlimit="10" stroke-dasharray=""/></g><g><path fill="none" stroke="#000000" paint-order="fill stroke markers" d=" M 474 498 L 426 498 L 426 298" stroke-miterlimit="10" stroke-dasharray=""/></g><g><path fill="#000000" stroke="none" paint-order="stroke fill markers" d=" M 430.209517756016 308.16267485762415 L 426 298 L 421.790482243984 308.16267485762415 L 426 320"/></g><g><path fill="none" stroke="#000000" paint-order="fill stroke markers" d=" M 430.209517756016 308.16267485762415 L 426 298 L 421.790482243984 308.16267485762415 L 426 320 L 430.209517756016 308.16267485762415" stroke-miterlimit="10" stroke-dasharray=""/></g><g><rect fill="#ffffff" stroke="none" x="468" y="416" width="32.9443359375" height="15" transform="matrix(1 0 0 1 -38 -38)"/></g><g><g><path fill="none" stroke="none"/><text fill="#000000" stroke="none" font-family="Arial" font-size="15px" font-style="normal" font-weight="normal" text-decoration="undefined" x="484.47216796875" y="423.5" text-anchor="middle" dominant-baseline="central" transform="matrix(1 0 0 1 -38 -38)">+has</text></g></g><g><rect fill="#ffffff" stroke="none" x="483" y="516" width="22.5146484375" height="15" transform="matrix(1 0 0 1 -38 -38)"/></g><g><g><path fill="none" stroke="none"/><text fill="#000000" stroke="none" font-family="Arial" font-size="15px" font-style="normal" font-weight="normal" text-decoration="undefined" x="494.25732421875" y="523.5" text-anchor="middle" dominant-baseline="central" transform="matrix(1 0 0 1 -38 -38)">1..*</text></g></g><g><rect fill="#ffffff" stroke="none" x="472" y="350" width="8.34228515625" height="15" transform="matrix(1 0 0 1 -38 -38)"/></g><g><g><path fill="none" stroke="none"/><text fill="#000000" stroke="none" font-family="Arial" font-size="15px" font-style="normal" font-weight="normal" text-decoration="undefined" x="476.171142578125" y="357.5" text-anchor="middle" dominant-baseline="central" transform="matrix(1 0 0 1 -38 -38)">1</text></g></g><g><path fill="none" stroke="#000000" paint-order="fill stroke markers" d=" M 434 266 L 434 154" stroke-miterlimit="10" stroke-dasharray=""/></g><g><path fill="#000000" stroke="none" paint-order="stroke fill markers" d=" M 438.209517756016 164.16267485762415 L 434 154 L 429.790482243984 164.16267485762415 L 434 176"/></g><g><path fill="none" stroke="#000000" paint-order="fill stroke markers" d=" M 438.209517756016 164.16267485762415 L 434 154 L 429.790482243984 164.16267485762415 L 434 176 L 438.209517756016 164.16267485762415" stroke-miterlimit="10" stroke-dasharray=""/></g><g><rect fill="#ffffff" stroke="none" x="479" y="239" width="32.9443359375" height="15" transform="matrix(1 0 0 1 -38 -38)"/></g><g><g><path fill="none" stroke="none"/><text fill="#000000" stroke="none" font-family="Arial" font-size="15px" font-style="normal" font-weight="normal" text-decoration="undefined" x="495.47216796875" y="246.5" text-anchor="middle" dominant-baseline="central" transform="matrix(1 0 0 1 -38 -38)">+has</text></g></g><g><rect fill="#ffffff" stroke="none" x="473" y="275" width="22.5146484375" height="15" transform="matrix(1 0 0 1 -38 -38)"/></g><g><g><path fill="none" stroke="none"/><text fill="#000000" stroke="none" font-family="Arial" font-size="15px" font-style="normal" font-weight="normal" text-decoration="undefined" x="484.25732421875" y="282.5" text-anchor="middle" dominant-baseline="central" transform="matrix(1 0 0 1 -38 -38)">0..*</text></g></g><g><rect fill="#ffffff" stroke="none" x="480" y="206" width="8.34228515625" height="15" transform="matrix(1 0 0 1 -38 -38)"/></g><g><g><path fill="none" stroke="none"/><text fill="#000000" stroke="none" font-family="Arial" font-size="15px" font-style="normal" font-weight="normal" text-decoration="undefined" x="484.171142578125" y="213.5" text-anchor="middle" dominant-baseline="central" transform="matrix(1 0 0 1 -38 -38)">1</text></g></g><g><path fill="none" stroke="#000000" paint-order="fill stroke markers" d=" M 474 562 L 394 562 L 394 298" stroke-miterlimit="10" stroke-dasharray=""/></g><g><path fill="#FFFFFF" stroke="none" paint-order="stroke fill markers" d=" M 398.209517756016 308.16267485762415 L 394 298 L 389.790482243984 308.16267485762415 L 394 320"/></g><g><path fill="none" stroke="#000000" paint-order="fill stroke markers" d=" M 398.209517756016 308.16267485762415 L 394 298 L 389.790482243984 308.16267485762415 L 394 320 L 398.209517756016 308.16267485762415" stroke-miterlimit="10" stroke-dasharray=""/></g><g><rect fill="#ffffff" stroke="none" x="392" y="415" width="32.9443359375" height="15" transform="matrix(1 0 0 1 -38 -38)"/></g><g><g><path fill="none" stroke="none"/><text fill="#000000" stroke="none" font-family="Arial" font-size="15px" font-style="normal" font-weight="normal" text-decoration="undefined" x="408.47216796875" y="422.5" text-anchor="middle" dominant-baseline="central" transform="matrix(1 0 0 1 -38 -38)">+has</text></g></g><g><rect fill="#ffffff" stroke="none" x="479" y="582" width="22.5146484375" height="15" transform="matrix(1 0 0 1 -38 -38)"/></g><g><g><path fill="none" stroke="none"/><text fill="#000000" stroke="none" font-family="Arial" font-size="15px" font-style="normal" font-weight="normal" text-decoration="undefined" x="490.25732421875" y="589.5" text-anchor="middle" dominant-baseline="central" transform="matrix(1 0 0 1 -38 -38)">0..*</text></g></g><g><rect fill="#ffffff" stroke="none" x="440" y="350" width="8.34228515625" height="15" transform="matrix(1 0 0 1 -38 -38)"/></g><g><g><path fill="none" stroke="none"/><text fill="#000000" stroke="none" font-family="Arial" font-size="15px" font-style="normal" font-weight="normal" text-decoration="undefined" x="444.171142578125" y="357.5" text-anchor="middle" dominant-baseline="central" transform="matrix(1 0 0 1 -38 -38)">1</text></g></g><g><path fill="none" stroke="#000000" paint-order="fill stroke markers" d=" M 138 298 L 138 514 L 474 514" stroke-miterlimit="10" stroke-dasharray=""/></g><g><path fill="none" stroke="#000000" paint-order="fill stroke markers" d=" M 463.83732514237585 518.209517756016 L 474 514 L 463.83732514237585 509.790482243984" stroke-miterlimit="10" stroke-dasharray=""/></g><g><rect fill="#ffffff" stroke="none" x="183" y="530" width="65.45654296875" height="15" transform="matrix(1 0 0 1 -38 -38)"/></g><g><g><path fill="none" stroke="none"/><text fill="#000000" stroke="none" font-family="Arial" font-size="15px" font-style="normal" font-weight="normal" text-decoration="undefined" x="215.728271484375" y="537.5" text-anchor="middle" dominant-baseline="central" transform="matrix(1 0 0 1 -38 -38)">+provides</text></g></g><g><path fill="none" stroke="#000000" paint-order="fill stroke markers" d=" M 138 298 L 138 578 L 474 578" stroke-miterlimit="10" stroke-dasharray=""/></g><g><path fill="none" stroke="#000000" paint-order="fill stroke markers" d=" M 463.83732514237585 582.209517756016 L 474 578 L 463.83732514237585 573.790482243984" stroke-miterlimit="10" stroke-dasharray=""/></g><g><rect fill="#ffffff" stroke="none" x="183" y="594" width="65.45654296875" height="15" transform="matrix(1 0 0 1 -38 -38)"/></g><g><g><path fill="none" stroke="none"/><text fill="#000000" stroke="none" font-family="Arial" font-size="15px" font-style="normal" font-weight="normal" text-decoration="undefined" x="215.728271484375" y="601.5" text-anchor="middle" dominant-baseline="central" transform="matrix(1 0 0 1 -38 -38)">+provides</text></g></g><g><path fill="none" stroke="#000000" paint-order="fill stroke markers" d=" M 474 442 L 250 442" stroke-miterlimit="10" stroke-dasharray=""/></g><g><path fill="#000000" stroke="none" paint-order="stroke fill markers" d=" M 260.16267485762415 437.790482243984 L 250 442 L 260.16267485762415 446.209517756016 L 272 442"/></g><g><path fill="none" stroke="#000000" paint-order="fill stroke markers" d=" M 260.16267485762415 437.790482243984 L 250 442 L 260.16267485762415 446.209517756016 L 272 442 L 260.16267485762415 437.790482243984" stroke-miterlimit="10" stroke-dasharray=""/></g><g><rect fill="#ffffff" stroke="none" x="336" y="462" width="64.62890625" height="15" transform="matrix(1 0 0 1 -38 -38)"/></g><g><g><path fill="none" stroke="none"/><text fill="#000000" stroke="none" font-family="Arial" font-size="15px" font-style="normal" font-weight="normal" text-decoration="undefined" x="368.314453125" y="469.5" text-anchor="middle" dominant-baseline="central" transform="matrix(1 0 0 1 -38 -38)">+contains</text></g></g><g><rect fill="#ffffff" stroke="none" x="480" y="459" width="22.5146484375" height="15" transform="matrix(1 0 0 1 -38 -38)"/></g><g><g><path fill="none" stroke="none"/><text fill="#000000" stroke="none" font-family="Arial" font-size="15px" font-style="normal" font-weight="normal" text-decoration="undefined" x="491.25732421875" y="466.5" text-anchor="middle" dominant-baseline="central" transform="matrix(1 0 0 1 -38 -38)">1..*</text></g></g><g><rect fill="#ffffff" stroke="none" x="296" y="456" width="22.5146484375" height="15" transform="matrix(1 0 0 1 -38 -38)"/></g><g><g><path fill="none" stroke="none"/><text fill="#000000" stroke="none" font-family="Arial" font-size="15px" font-style="normal" font-weight="normal" text-decoration="undefined" x="307.25732421875" y="463.5" text-anchor="middle" dominant-baseline="central" transform="matrix(1 0 0 1 -38 -38)">0..*</text></g></g><g><rect fill="#C0C0C0" stroke="none" x="199" y="55" width="144" height="32" transform="matrix(1 0 0 1 -38 -38)" fill-opacity="0.2"/></g><g><rect fill="#FFFFD8" stroke="none" x="192" y="48" width="144" height="32" transform="matrix(1 0 0 1 -38 -38)"/></g><g><path fill="none" stroke="#000000" paint-order="fill stroke markers" d=" M 154 10 L 298 10 L 298 42 L 154 42 L 154 10 Z Z" stroke-miterlimit="10" stroke-dasharray=""/></g><g><g><path fill="none" stroke="none"/><text fill="#000000" stroke="none" font-family="Arial" font-size="15px" font-style="normal" font-weight="bold" text-decoration="undefined" x="264.5" y="62.5" text-anchor="middle" dominant-baseline="central" transform="matrix(1 0 0 1 -38 -38)">VSCode4Teaching</text></g></g><g><path fill="none" stroke="#000000" paint-order="fill stroke markers" d=" M 402 122 L 402 74 L 234 74 L 234 42" stroke-miterlimit="10" stroke-dasharray=""/></g><g><path fill="#000000" stroke="none" paint-order="stroke fill markers" d=" M 238.209517756016 52.162674857624154 L 234 42 L 229.790482243984 52.162674857624154 L 234 64"/></g><g><path fill="none" stroke="#000000" paint-order="fill stroke markers" d=" M 238.209517756016 52.162674857624154 L 234 42 L 229.790482243984 52.162674857624154 L 234 64 L 238.209517756016 52.162674857624154" stroke-miterlimit="10" stroke-dasharray=""/></g><g><rect fill="#ffffff" stroke="none" x="446" y="136" width="22.5146484375" height="15" transform="matrix(1 0 0 1 -38 -38)"/></g><g><g><path fill="none" stroke="none"/><text fill="#000000" stroke="none" font-family="Arial" font-size="15px" font-style="normal" font-weight="normal" text-decoration="undefined" x="457.25732421875" y="143.5" text-anchor="middle" dominant-baseline="central" transform="matrix(1 0 0 1 -38 -38)">0..*</text></g></g><g><path fill="none" stroke="#000000" paint-order="fill stroke markers" d=" M 106 122 L 106 74 L 218 74 L 218 42" stroke-miterlimit="10" stroke-dasharray=""/></g><g><path fill="#000000" stroke="none" paint-order="stroke fill markers" d=" M 222.209517756016 52.162674857624154 L 218 42 L 213.790482243984 52.162674857624154 L 218 64"/></g><g><path fill="none" stroke="#000000" paint-order="fill stroke markers" d=" M 222.209517756016 52.162674857624154 L 218 42 L 213.790482243984 52.162674857624154 L 218 64 L 222.209517756016 52.162674857624154" stroke-miterlimit="10" stroke-dasharray=""/></g><g><rect fill="#ffffff" stroke="none" x="152" y="136" width="22.5146484375" height="15" transform="matrix(1 0 0 1 -38 -38)"/></g><g><g><path fill="none" stroke="none"/><text fill="#000000" stroke="none" font-family="Arial" font-size="15px" font-style="normal" font-weight="normal" text-decoration="undefined" x="163.25732421875" y="143.5" text-anchor="middle" dominant-baseline="central" transform="matrix(1 0 0 1 -38 -38)">1..*</text></g></g><g><path fill="none" stroke="#000000" paint-order="fill stroke markers" d=" M 202 274 L 378 274" stroke-miterlimit="10" stroke-dasharray=""/></g><g><path fill="none" stroke="#000000" paint-order="fill stroke markers" d=" M 367.83732514237585 278.209517756016 L 378 274 L 367.83732514237585 269.790482243984" stroke-miterlimit="10" stroke-dasharray=""/></g><g><rect fill="#ffffff" stroke="none" x="296" y="295" width="70.46630859375" height="15" transform="matrix(1 0 0 1 -38 -38)"/></g><g><g><path fill="none" stroke="none"/><text fill="#000000" stroke="none" font-family="Arial" font-size="15px" font-style="normal" font-weight="normal" text-decoration="undefined" x="331.233154296875" y="302.5" text-anchor="middle" dominant-baseline="central" transform="matrix(1 0 0 1 -38 -38)">+manages</text></g></g></g></svg>