<svg version="1.1" xmlns="http://www.w3.org/2000/svg" xmlns:xlink="http://www.w3.org/1999/xlink" width="669" height="724"><defs/><g><g><rect fill="#C0C0C0" stroke="none" x="55" y="55" width="259.2" height="15" transform="matrix(1 0 0 1 -38 -38)" fill-opacity="0.2"/></g><g><rect fill="#C0C0C0" stroke="none" x="55" y="69" width="648" height="690" transform="matrix(1 0 0 1 -38 -38)" fill-opacity="0.2"/></g><g><rect fill="#ffffff" stroke="none" x="48" y="63" width="648" height="689" transform="matrix(1 0 0 1 -38 -38)"/></g><g><path fill="none" stroke="#000000" paint-order="fill stroke markers" d=" M 10 25 L 658 25 L 658 714 L 10 714 L 10 25 Z Z" stroke-miterlimit="10" stroke-dasharray=""/></g><g><rect fill="#ffffff" stroke="none" x="48" y="48" width="259.2" height="15" transform="matrix(1 0 0 1 -38 -38)"/></g><g><path fill="none" stroke="#000000" paint-order="fill stroke markers" d=" M 10 10 L 269.2 10 L 269.2 25 L 10 25 L 10 10 Z Z" stroke-miterlimit="10" stroke-dasharray=""/></g><g><rect fill="#ffffff" stroke="none" x="48" y="62" width="648" height="690" transform="matrix(1 0 0 1 -38 -38)"/></g><g><path fill="none" stroke="#000000" paint-order="fill stroke markers" d=" M 10 24 L 658 24 L 658 714 L 10 714 L 10 24 Z Z" stroke-miterlimit="10" stroke-dasharray=""/></g><g><g><path fill="none" stroke="none"/><text fill="#000000" stroke="none" font-family="Arial" font-size="13px" font-style="normal" font-weight="bold" text-decoration="undefined" x="372.5" y="76.5" text-anchor="middle" dominant-baseline="central" transform="matrix(1 0 0 1 -38 -38)">Server</text></g></g><g><rect fill="#C0C0C0" stroke="none" x="71" y="103" width="243.2" height="15" transform="matrix(1 0 0 1 -38 -38)" fill-opacity="0.2"/></g><g><rect fill="#C0C0C0" stroke="none" x="71" y="117" width="608" height="98" transform="matrix(1 0 0 1 -38 -38)" fill-opacity="0.2"/></g><g><rect fill="#FFFFD8" stroke="none" x="64" y="111" width="608" height="97" transform="matrix(1 0 0 1 -38 -38)"/></g><g><path fill="none" stroke="#000000" paint-order="fill stroke markers" d=" M 26 73 L 634 73 L 634 170 L 26 170 L 26 73 Z Z" stroke-miterlimit="10" stroke-dasharray=""/></g><g><rect fill="#FFFFD8" stroke="none" x="64" y="96" width="243.2" height="15" transform="matrix(1 0 0 1 -38 -38)"/></g><g><path fill="none" stroke="#000000" paint-order="fill stroke markers" d=" M 26 58 L 269.2 58 L 269.2 73 L 26 73 L 26 58 Z Z" stroke-miterlimit="10" stroke-dasharray=""/></g><g><rect fill="#FFFFD8" stroke="none" x="64" y="110" width="608" height="98" transform="matrix(1 0 0 1 -38 -38)"/></g><g><path fill="none" stroke="#000000" paint-order="fill stroke markers" d=" M 26 72 L 634 72 L 634 170 L 26 170 L 26 72 Z Z" stroke-miterlimit="10" stroke-dasharray=""/></g><g><g><path fill="none" stroke="none"/><text fill="#000000" stroke="none" font-family="Arial" font-size="13px" font-style="normal" font-weight="bold" text-decoration="undefined" x="368.5" y="124.5" text-anchor="middle" dominant-baseline="central" transform="matrix(1 0 0 1 -38 -38)">Controller</text></g></g><g><rect fill="#C0C0C0" stroke="none" x="111" y="231" width="227.2" height="15" transform="matrix(1 0 0 1 -38 -38)" fill-opacity="0.2"/></g><g><rect fill="#C0C0C0" stroke="none" x="111" y="245" width="568" height="114" transform="matrix(1 0 0 1 -38 -38)" fill-opacity="0.2"/></g><g><rect fill="#FFF5D8" stroke="none" x="104" y="239" width="568" height="113" transform="matrix(1 0 0 1 -38 -38)"/></g><g><path fill="none" stroke="#000000" paint-order="fill stroke markers" d=" M 66 201 L 634 201 L 634 314 L 66 314 L 66 201 Z Z" stroke-miterlimit="10" stroke-dasharray=""/></g><g><rect fill="#FFF5D8" stroke="none" x="104" y="224" width="227.2" height="15" transform="matrix(1 0 0 1 -38 -38)"/></g><g><path fill="none" stroke="#000000" paint-order="fill stroke markers" d=" M 66 186 L 293.2 186 L 293.2 201 L 66 201 L 66 186 Z Z" stroke-miterlimit="10" stroke-dasharray=""/></g><g><rect fill="#FFF5D8" stroke="none" x="104" y="238" width="568" height="114" transform="matrix(1 0 0 1 -38 -38)"/></g><g><path fill="none" stroke="#000000" paint-order="fill stroke markers" d=" M 66 200 L 634 200 L 634 314 L 66 314 L 66 200 Z Z" stroke-miterlimit="10" stroke-dasharray=""/></g><g><g><path fill="none" stroke="none"/><text fill="#000000" stroke="none" font-family="Arial" font-size="13px" font-style="normal" font-weight="bold" text-decoration="undefined" x="388.5" y="252.5" text-anchor="middle" dominant-baseline="central" transform="matrix(1 0 0 1 -38 -38)">Service</text></g></g><g><rect fill="#C0C0C0" stroke="none" x="135" y="375" width="217.60000000000002" height="15" transform="matrix(1 0 0 1 -38 -38)" fill-opacity="0.2"/></g><g><rect fill="#C0C0C0" stroke="none" x="135" y="389" width="544" height="354" transform="matrix(1 0 0 1 -38 -38)" fill-opacity="0.2"/></g><g><rect fill="#FFEBD8" stroke="none" x="128" y="383" width="544" height="353" transform="matrix(1 0 0 1 -38 -38)"/></g><g><path fill="none" stroke="#000000" paint-order="fill stroke markers" d=" M 90 345 L 634 345 L 634 698 L 90 698 L 90 345 Z Z" stroke-miterlimit="10" stroke-dasharray=""/></g><g><rect fill="#FFEBD8" stroke="none" x="128" y="368" width="217.60000000000002" height="15" transform="matrix(1 0 0 1 -38 -38)"/></g><g><path fill="none" stroke="#000000" paint-order="fill stroke markers" d=" M 90 330 L 307.6 330 L 307.6 345 L 90 345 L 90 330 Z Z" stroke-miterlimit="10" stroke-dasharray=""/></g><g><rect fill="#FFEBD8" stroke="none" x="128" y="382" width="544" height="354" transform="matrix(1 0 0 1 -38 -38)"/></g><g><path fill="none" stroke="#000000" paint-order="fill stroke markers" d=" M 90 344 L 634 344 L 634 698 L 90 698 L 90 344 Z Z" stroke-miterlimit="10" stroke-dasharray=""/></g><g><g><path fill="none" stroke="none"/><text fill="#000000" stroke="none" font-family="Arial" font-size="13px" font-style="normal" font-weight="bold" text-decoration="undefined" x="400.5" y="396.5" text-anchor="middle" dominant-baseline="central" transform="matrix(1 0 0 1 -38 -38)">Model</text></g></g><g><rect fill="#C0C0C0" stroke="none" x="87" y="151" width="399.3525390625" height="48" transform="matrix(1 0 0 1 -38 -38)" fill-opacity="0.2"/></g><g><rect fill="#ffffff" stroke="none" x="80" y="144" width="399.3525390625" height="48" transform="matrix(1 0 0 1 -38 -38)"/></g><g><path fill="none" stroke="#000000" paint-order="fill stroke markers" d=" M 42 106 L 441.3525390625 106 L 441.3525390625 154 L 42 154 L 42 106 Z Z" stroke-miterlimit="10" stroke-dasharray=""/></g><g><path fill="none" stroke="#000000" paint-order="fill stroke markers" d=" M 42 131 L 441.3525390625 131" stroke-miterlimit="10" stroke-dasharray=""/></g><g><g><path fill="none" stroke="none"/><text fill="#000000" stroke="none" font-family="Arial" font-size="13px" font-style="normal" font-weight="bold" text-decoration="undefined" x="280.17626953125" y="157.5" text-anchor="middle" dominant-baseline="central" transform="matrix(1 0 0 1 -38 -38)">CourseController</text></g></g><g><g><path fill="none" stroke="none"/><text fill="#000000" stroke="none" font-family="Arial" font-size="13px" font-style="normal" font-weight="normal" text-decoration="undefined" x="85" y="180.5" text-anchor="start" dominant-baseline="central" transform="matrix(1 0 0 1 -38 -38)">«@PostMapping("/courses")»+addCourse(CourseDTO courseDTO)</text></g></g><g><rect fill="#C0C0C0" stroke="none" x="127" y="279" width="184" height="48" transform="matrix(1 0 0 1 -38 -38)" fill-opacity="0.2"/></g><g><rect fill="#ffffff" stroke="none" x="120" y="272" width="184" height="48" transform="matrix(1 0 0 1 -38 -38)"/></g><g><path fill="none" stroke="#000000" paint-order="fill stroke markers" d=" M 82 234 L 266 234 L 266 282 L 82 282 L 82 234 Z Z" stroke-miterlimit="10" stroke-dasharray=""/></g><g><path fill="none" stroke="#000000" paint-order="fill stroke markers" d=" M 82 259 L 266 259" stroke-miterlimit="10" stroke-dasharray=""/></g><g><g><path fill="none" stroke="none"/><text fill="#000000" stroke="none" font-family="Arial" font-size="13px" font-style="normal" font-weight="bold" text-decoration="undefined" x="212.5" y="285.5" text-anchor="middle" dominant-baseline="central" transform="matrix(1 0 0 1 -38 -38)">CourseService</text></g></g><g><g><path fill="none" stroke="none"/><text fill="#000000" stroke="none" font-family="Arial" font-size="13px" font-style="normal" font-weight="normal" text-decoration="undefined" x="125" y="308.5" text-anchor="start" dominant-baseline="central" transform="matrix(1 0 0 1 -38 -38)">+addCourse(Course course)</text></g></g><g><rect fill="#C0C0C0" stroke="none" x="535" y="279" width="112" height="63" transform="matrix(1 0 0 1 -38 -38)" fill-opacity="0.2"/></g><g><rect fill="#ffffff" stroke="none" x="528" y="272" width="112" height="63" transform="matrix(1 0 0 1 -38 -38)"/></g><g><path fill="none" stroke="#000000" paint-order="fill stroke markers" d=" M 490 234 L 602 234 L 602 297 L 490 297 L 490 234 Z Z" stroke-miterlimit="10" stroke-dasharray=""/></g><g><path fill="none" stroke="#000000" paint-order="fill stroke markers" d=" M 490 259 L 602 259" stroke-miterlimit="10" stroke-dasharray=""/></g><g><g><path fill="none" stroke="none"/><text fill="#000000" stroke="none" font-family="Arial" font-size="13px" font-style="normal" font-weight="bold" text-decoration="undefined" x="584.5" y="285.5" text-anchor="middle" dominant-baseline="central" transform="matrix(1 0 0 1 -38 -38)">UserService</text></g></g><g><g><path fill="none" stroke="none"/><text fill="#000000" stroke="none" font-family="Arial" font-size="13px" font-style="normal" font-weight="normal" text-decoration="undefined" x="533" y="308.5" text-anchor="start" dominant-baseline="central" transform="matrix(1 0 0 1 -38 -38)">+isExistingUser()</text></g></g><g><g><path fill="none" stroke="none"/><text fill="#000000" stroke="none" font-family="Arial" font-size="13px" font-style="normal" font-weight="normal" text-decoration="undefined" x="533" y="323.5" text-anchor="start" dominant-baseline="central" transform="matrix(1 0 0 1 -38 -38)">+isTeacher()</text></g></g><g><path fill="none" stroke="#000000" paint-order="fill stroke markers" d=" M 34 170 L 34 410 L 90 410" stroke-miterlimit="10" stroke-dasharray="3"/></g><g><path fill="none" stroke="#000000" paint-order="fill stroke markers" d=" M 79.83732514237585 414.209517756016 L 90 410 L 79.83732514237585 405.790482243984" stroke-miterlimit="10" stroke-dasharray=""/></g><g><path fill="none" stroke="#000000" paint-order="fill stroke markers" d=" M 74 314 L 74 394 L 90 394" stroke-miterlimit="10" stroke-dasharray="3"/></g><g><path fill="none" stroke="#000000" paint-order="fill stroke markers" d=" M 79.83732514237585 398.209517756016 L 90 394 L 79.83732514237585 389.790482243984" stroke-miterlimit="10" stroke-dasharray=""/></g><g><path fill="none" stroke="#000000" paint-order="fill stroke markers" d=" M 162 154 L 162 234" stroke-miterlimit="10" stroke-dasharray=""/></g><g><path fill="none" stroke="#000000" paint-order="fill stroke markers" d=" M 157.790482243984 223.83732514237585 L 162 234 L 166.209517756016 223.83732514237585" stroke-miterlimit="10" stroke-dasharray=""/></g><g><path fill="none" stroke="#000000" paint-order="fill stroke markers" d=" M 266 250 L 490 250" stroke-miterlimit="10" stroke-dasharray=""/></g><g><path fill="none" stroke="#000000" paint-order="fill stroke markers" d=" M 479.8373251423759 254.209517756016 L 490 250 L 479.8373251423758 245.790482243984" stroke-miterlimit="10" stroke-dasharray=""/></g><g><rect fill="#C0C0C0" stroke="none" x="527" y="575" width="113.32080078125" height="138" transform="matrix(1 0 0 1 -38 -38)" fill-opacity="0.2"/></g><g><rect fill="#ffffff" stroke="none" x="520" y="568" width="113.32080078125" height="138" transform="matrix(1 0 0 1 -38 -38)"/></g><g><path fill="none" stroke="#000000" paint-order="fill stroke markers" d=" M 482 530 L 595.32080078125 530 L 595.32080078125 668 L 482 668 L 482 530 Z Z" stroke-miterlimit="10" stroke-dasharray=""/></g><g><path fill="none" stroke="#000000" paint-order="fill stroke markers" d=" M 482 555 L 595.32080078125 555" stroke-miterlimit="10" stroke-dasharray=""/></g><g><g><path fill="none" stroke="none"/><text fill="#000000" stroke="none" font-family="Arial" font-size="13px" font-style="normal" font-weight="bold" text-decoration="undefined" x="577.160400390625" y="581.5" text-anchor="middle" dominant-baseline="central" transform="matrix(1 0 0 1 -38 -38)">User</text></g></g><g><g><path fill="none" stroke="none"/><text fill="#000000" stroke="none" font-family="Arial" font-size="13px" font-style="normal" font-weight="normal" text-decoration="undefined" x="525" y="604.5" text-anchor="start" dominant-baseline="central" transform="matrix(1 0 0 1 -38 -38)">-id: Long</text></g></g><g><g><path fill="none" stroke="none"/><text fill="#000000" stroke="none" font-family="Arial" font-size="13px" font-style="normal" font-weight="normal" text-decoration="undefined" x="525" y="619.5" text-anchor="start" dominant-baseline="central" transform="matrix(1 0 0 1 -38 -38)">-email: String</text></g></g><g><g><path fill="none" stroke="none"/><text fill="#000000" stroke="none" font-family="Arial" font-size="13px" font-style="normal" font-weight="normal" text-decoration="undefined" x="525" y="634.5" text-anchor="start" dominant-baseline="central" transform="matrix(1 0 0 1 -38 -38)">-username: String</text></g></g><g><g><path fill="none" stroke="none"/><text fill="#000000" stroke="none" font-family="Arial" font-size="13px" font-style="normal" font-weight="normal" text-decoration="undefined" x="525" y="649.5" text-anchor="start" dominant-baseline="central" transform="matrix(1 0 0 1 -38 -38)">-password: String</text></g></g><g><g><path fill="none" stroke="none"/><text fill="#000000" stroke="none" font-family="Arial" font-size="13px" font-style="normal" font-weight="normal" text-decoration="undefined" x="525" y="664.5" text-anchor="start" dominant-baseline="central" transform="matrix(1 0 0 1 -38 -38)">-name: String</text></g></g><g><g><path fill="none" stroke="none"/><text fill="#000000" stroke="none" font-family="Arial" font-size="13px" font-style="normal" font-weight="normal" text-decoration="undefined" x="525" y="679.5" text-anchor="start" dominant-baseline="central" transform="matrix(1 0 0 1 -38 -38)">-lastName: String</text></g></g><g><g><path fill="none" stroke="none"/><text fill="#000000" stroke="none" font-family="Arial" font-size="13px" font-style="normal" font-weight="normal" text-decoration="undefined" x="525" y="694.5" text-anchor="start" dominant-baseline="central" transform="matrix(1 0 0 1 -38 -38)">-roles: List&lt;Role&gt;</text></g></g><g><rect fill="#C0C0C0" stroke="none" x="167" y="575" width="168.95166015625" height="78" transform="matrix(1 0 0 1 -38 -38)" fill-opacity="0.2"/></g><g><rect fill="#ffffff" stroke="none" x="160" y="568" width="168.95166015625" height="78" transform="matrix(1 0 0 1 -38 -38)"/></g><g><path fill="none" stroke="#000000" paint-order="fill stroke markers" d=" M 122 530 L 290.95166015625 530 L 290.95166015625 608 L 122 608 L 122 530 Z Z" stroke-miterlimit="10" stroke-dasharray=""/></g><g><path fill="none" stroke="#000000" paint-order="fill stroke markers" d=" M 122 555 L 290.95166015625 555" stroke-miterlimit="10" stroke-dasharray=""/></g><g><g><path fill="none" stroke="none"/><text fill="#000000" stroke="none" font-family="Arial" font-size="13px" font-style="normal" font-weight="bold" text-decoration="undefined" x="244.975830078125" y="581.5" text-anchor="middle" dominant-baseline="central" transform="matrix(1 0 0 1 -38 -38)">Course</text></g></g><g><g><path fill="none" stroke="none"/><text fill="#000000" stroke="none" font-family="Arial" font-size="13px" font-style="normal" font-weight="normal" text-decoration="undefined" x="165" y="604.5" text-anchor="start" dominant-baseline="central" transform="matrix(1 0 0 1 -38 -38)">-id: Long</text></g></g><g><g><path fill="none" stroke="none"/><text fill="#000000" stroke="none" font-family="Arial" font-size="13px" font-style="normal" font-weight="normal" text-decoration="undefined" x="165" y="619.5" text-anchor="start" dominant-baseline="central" transform="matrix(1 0 0 1 -38 -38)">-name: String</text></g></g><g><g><path fill="none" stroke="none"/><text fill="#000000" stroke="none" font-family="Arial" font-size="13px" font-style="normal" font-weight="normal" text-decoration="undefined" x="165" y="634.5" text-anchor="start" dominant-baseline="central" transform="matrix(1 0 0 1 -38 -38)">-exercises: List&lt;Exercise&gt;</text></g></g><g><path fill="none" stroke="#000000" paint-order="fill stroke markers" d=" M 291 546 L 482 546" stroke-miterlimit="10" stroke-dasharray=""/></g><g><rect fill="#FFFFFF00" stroke="none" x="336" y="563" width="92.1298828125" height="13" transform="matrix(1 0 0 1 -38 -38)"/></g><g><g><path fill="none" stroke="none"/><text fill="#000000" stroke="none" font-family="Arial" font-size="13px" font-style="normal" font-weight="normal" text-decoration="undefined" x="382.06494140625" y="569.5" text-anchor="middle" dominant-baseline="central" transform="matrix(1 0 0 1 -38 -38)">+usersInCourse</text></g></g><g><rect fill="#FFFFFF00" stroke="none" x="341" y="590" width="19.5126953125" height="13" transform="matrix(1 0 0 1 -38 -38)"/></g><g><g><path fill="none" stroke="none"/><text fill="#000000" stroke="none" font-family="Arial" font-size="13px" font-style="normal" font-weight="normal" text-decoration="undefined" x="350.75634765625" y="596.5" text-anchor="middle" dominant-baseline="central" transform="matrix(1 0 0 1 -38 -38)">0..*</text></g></g><g><rect fill="#FFFFFF00" stroke="none" x="448" y="562" width="57.43994140625" height="13" transform="matrix(1 0 0 1 -38 -38)"/></g><g><g><path fill="none" stroke="none"/><text fill="#000000" stroke="none" font-family="Arial" font-size="13px" font-style="normal" font-weight="normal" text-decoration="undefined" x="476.719970703125" y="568.5" text-anchor="middle" dominant-baseline="central" transform="matrix(1 0 0 1 -38 -38)">+courses</text></g></g><g><rect fill="#FFFFFF00" stroke="none" x="489" y="590" width="19.5126953125" height="13" transform="matrix(1 0 0 1 -38 -38)"/></g><g><g><path fill="none" stroke="none"/><text fill="#000000" stroke="none" font-family="Arial" font-size="13px" font-style="normal" font-weight="normal" text-decoration="undefined" x="498.75634765625" y="596.5" text-anchor="middle" dominant-baseline="central" transform="matrix(1 0 0 1 -38 -38)">0..*</text></g></g><g><path fill="none" stroke="#000000" paint-order="fill stroke markers" d=" M 291 602 L 482 602" stroke-miterlimit="10" stroke-dasharray=""/></g><g><path fill="none" stroke="#000000" paint-order="fill stroke markers" d=" M 471.83732514237585 606.209517756016 L 482 602 L 471.83732514237585 597.790482243984" stroke-miterlimit="10" stroke-dasharray=""/></g><g><rect fill="#FFFFFF00" stroke="none" x="336" y="619" width="48.0517578125" height="13" transform="matrix(1 0 0 1 -38 -38)"/></g><g><g><path fill="none" stroke="none"/><text fill="#000000" stroke="none" font-family="Arial" font-size="13px" font-style="normal" font-weight="normal" text-decoration="undefined" x="360.02587890625" y="625.5" text-anchor="middle" dominant-baseline="central" transform="matrix(1 0 0 1 -38 -38)">+creator</text></g></g><g><rect fill="#FFFFFF00" stroke="none" x="341" y="646" width="19.5126953125" height="13" transform="matrix(1 0 0 1 -38 -38)"/></g><g><g><path fill="none" stroke="none"/><text fill="#000000" stroke="none" font-family="Arial" font-size="13px" font-style="normal" font-weight="normal" text-decoration="undefined" x="350.75634765625" y="652.5" text-anchor="middle" dominant-baseline="central" transform="matrix(1 0 0 1 -38 -38)">0..*</text></g></g><g><rect fill="#FFFFFF00" stroke="none" x="489" y="646" width="19.5126953125" height="13" transform="matrix(1 0 0 1 -38 -38)"/></g><g><g><path fill="none" stroke="none"/><text fill="#000000" stroke="none" font-family="Arial" font-size="13px" font-style="normal" font-weight="normal" text-decoration="undefined" x="498.75634765625" y="652.5" text-anchor="middle" dominant-baseline="central" transform="matrix(1 0 0 1 -38 -38)">1</text></g></g><g><path fill="none" stroke="#000000" paint-order="fill stroke markers" d=" M 50 170 L 50 282 L 66 282" stroke-miterlimit="10" stroke-dasharray="3"/></g><g><path fill="none" stroke="#000000" paint-order="fill stroke markers" d=" M 55.837325142375846 286.209517756016 L 66 282 L 55.837325142375846 277.790482243984" stroke-miterlimit="10" stroke-dasharray=""/></g><g><rect fill="#C0C0C0" stroke="none" x="151" y="415" width="201.60000000000002" height="15" transform="matrix(1 0 0 1 -38 -38)" fill-opacity="0.2"/></g><g><rect fill="#C0C0C0" stroke="none" x="151" y="429" width="504" height="114" transform="matrix(1 0 0 1 -38 -38)" fill-opacity="0.2"/></g><g><rect fill="#ffffff" stroke="none" x="144" y="423" width="504" height="113" transform="matrix(1 0 0 1 -38 -38)"/></g><g><path fill="none" stroke="#000000" paint-order="fill stroke markers" d=" M 106 385 L 610 385 L 610 498 L 106 498 L 106 385 Z Z" stroke-miterlimit="10" stroke-dasharray=""/></g><g><rect fill="#ffffff" stroke="none" x="144" y="408" width="201.60000000000002" height="15" transform="matrix(1 0 0 1 -38 -38)"/></g><g><path fill="none" stroke="#000000" paint-order="fill stroke markers" d=" M 106 370 L 307.6 370 L 307.6 385 L 106 385 L 106 370 Z Z" stroke-miterlimit="10" stroke-dasharray=""/></g><g><rect fill="#ffffff" stroke="none" x="144" y="422" width="504" height="114" transform="matrix(1 0 0 1 -38 -38)"/></g><g><path fill="none" stroke="#000000" paint-order="fill stroke markers" d=" M 106 384 L 610 384 L 610 498 L 106 498 L 106 384 Z Z" stroke-miterlimit="10" stroke-dasharray=""/></g><g><g><path fill="none" stroke="none"/><text fill="#000000" stroke="none" font-family="Arial" font-size="13px" font-style="normal" font-weight="bold" text-decoration="undefined" x="396.5" y="436.5" text-anchor="middle" dominant-baseline="central" transform="matrix(1 0 0 1 -38 -38)">Repository</text></g></g><g><rect fill="#C0C0C0" stroke="none" x="167" y="463" width="138.248046875" height="61" transform="matrix(1 0 0 1 -38 -38)" fill-opacity="0.2"/></g><g><rect fill="#ffffff" stroke="none" x="160" y="456" width="138.248046875" height="61" transform="matrix(1 0 0 1 -38 -38)"/></g><g><path fill="none" stroke="#000000" paint-order="fill stroke markers" d=" M 122 418 L 260.248046875 418 L 260.248046875 479 L 122 479 L 122 418 Z Z" stroke-miterlimit="10" stroke-dasharray=""/></g><g><path fill="none" stroke="#000000" paint-order="fill stroke markers" d=" M 122 456 L 260.248046875 456" stroke-miterlimit="10" stroke-dasharray=""/></g><g><g><path fill="none" stroke="none"/><text fill="#000000" stroke="none" font-family="Arial" font-size="13px" font-style="normal" font-weight="normal" text-decoration="undefined" x="229.6240234375" y="467.5" text-anchor="middle" dominant-baseline="central" transform="matrix(1 0 0 1 -38 -38)">«interface»</text></g></g><g><g><path fill="none" stroke="none"/><text fill="#000000" stroke="none" font-family="Arial" font-size="13px" font-style="normal" font-weight="bold" text-decoration="undefined" x="229.6240234375" y="482.5" text-anchor="middle" dominant-baseline="central" transform="matrix(1 0 0 1 -38 -38)">CourseRepository</text></g></g><g><g><path fill="none" stroke="none"/><text fill="#000000" stroke="none" font-family="Arial" font-size="13px" font-style="normal" font-weight="normal" text-decoration="undefined" x="165" y="505.5" text-anchor="start" dominant-baseline="central" transform="matrix(1 0 0 1 -38 -38)">+save(Course course)</text></g></g><g><path fill="none" stroke="#000000" paint-order="fill stroke markers" d=" M 193 479 L 193 530" stroke-miterlimit="10" stroke-dasharray="3"/></g><g><path fill="none" stroke="#000000" paint-order="fill stroke markers" d=" M 188.790482243984 519.8373251423759 L 193 530 L 197.209517756016 519.8373251423759" stroke-miterlimit="10" stroke-dasharray=""/></g><g><path fill="none" stroke="#000000" paint-order="fill stroke markers" d=" M 506 479 L 506 530" stroke-miterlimit="10" stroke-dasharray="3"/></g><g><path fill="none" stroke="#000000" paint-order="fill stroke markers" d=" M 501.790482243984 519.8373251423759 L 506 530 L 510.209517756016 519.8373251423759" stroke-miterlimit="10" stroke-dasharray=""/></g><g><rect fill="#C0C0C0" stroke="none" x="455" y="463" width="112.984375" height="61" transform="matrix(1 0 0 1 -38 -38)" fill-opacity="0.2"/></g><g><rect fill="#ffffff" stroke="none" x="448" y="456" width="112.984375" height="61" transform="matrix(1 0 0 1 -38 -38)"/></g><g><path fill="none" stroke="#000000" paint-order="fill stroke markers" d=" M 410 418 L 522.984375 418 L 522.984375 479 L 410 479 L 410 418 Z Z" stroke-miterlimit="10" stroke-dasharray=""/></g><g><path fill="none" stroke="#000000" paint-order="fill stroke markers" d=" M 410 456 L 522.984375 456" stroke-miterlimit="10" stroke-dasharray=""/></g><g><g><path fill="none" stroke="none"/><text fill="#000000" stroke="none" font-family="Arial" font-size="13px" font-style="normal" font-weight="normal" text-decoration="undefined" x="504.9921875" y="467.5" text-anchor="middle" dominant-baseline="central" transform="matrix(1 0 0 1 -38 -38)">«interface»</text></g></g><g><g><path fill="none" stroke="none"/><text fill="#000000" stroke="none" font-family="Arial" font-size="13px" font-style="normal" font-weight="bold" text-decoration="undefined" x="504.9921875" y="482.5" text-anchor="middle" dominant-baseline="central" transform="matrix(1 0 0 1 -38 -38)">UserRepository</text></g></g><g><g><path fill="none" stroke="none"/><text fill="#000000" stroke="none" font-family="Arial" font-size="13px" font-style="normal" font-weight="normal" text-decoration="undefined" x="453" y="505.5" text-anchor="start" dominant-baseline="central" transform="matrix(1 0 0 1 -38 -38)">+getById(Long id)</text></g></g><g><path fill="none" stroke="#000000" paint-order="fill stroke markers" d=" M 266 266 L 282 266 L 282 530" stroke-miterlimit="10" stroke-dasharray=""/></g><g><path fill="none" stroke="#000000" paint-order="fill stroke markers" d=" M 277.790482243984 519.8373251423759 L 282 530 L 286.209517756016 519.8373251423759" stroke-miterlimit="10" stroke-dasharray=""/></g><g><path fill="none" stroke="#000000" paint-order="fill stroke markers" d=" M 570 297 L 570 530" stroke-miterlimit="10" stroke-dasharray=""/></g><g><path fill="none" stroke="#000000" paint-order="fill stroke markers" d=" M 565.790482243984 519.8373251423759 L 570 530 L 574.209517756016 519.8373251423759" stroke-miterlimit="10" stroke-dasharray=""/></g><g><path fill="none" stroke="#000000" paint-order="fill stroke markers" d=" M 194 282 L 194 418" stroke-miterlimit="10" stroke-dasharray=""/></g><g><path fill="none" stroke="#000000" paint-order="fill stroke markers" d=" M 189.790482243984 407.83732514237585 L 194 418 L 198.209517756016 407.83732514237585" stroke-miterlimit="10" stroke-dasharray=""/></g><g><path fill="none" stroke="#000000" paint-order="fill stroke markers" d=" M 506 297 L 506 418" stroke-miterlimit="10" stroke-dasharray=""/></g><g><path fill="none" stroke="#000000" paint-order="fill stroke markers" d=" M 501.790482243984 407.83732514237585 L 506 418 L 510.209517756016 407.83732514237585" stroke-miterlimit="10" stroke-dasharray=""/></g></g></svg>