<svg version="1.1" xmlns="http://www.w3.org/2000/svg" xmlns:xlink="http://www.w3.org/1999/xlink" width="989" height="539"><defs/><g><g><rect fill="#C0C0C0" stroke="none" x="383" y="87" width="112" height="86" transform="matrix(1 0 0 1 -38 -38)" fill-opacity="0.2"/></g><g><rect fill="#FFFFD8" stroke="none" x="376" y="80" width="112" height="86" transform="matrix(1 0 0 1 -38 -38)"/></g><g><path fill="none" stroke="#000000" paint-order="fill stroke markers" d=" M 338 42 L 450 42 L 450 128 L 338 128 L 338 42 Z Z" stroke-miterlimit="10" stroke-dasharray=""/></g><g><path fill="none" stroke="#000000" paint-order="fill stroke markers" d=" M 338 69 L 450 69" stroke-miterlimit="10" stroke-dasharray=""/></g><g><g><path fill="none" stroke="none"/><text fill="#000000" stroke="none" font-family="Arial" font-size="15px" font-style="normal" font-weight="bold" text-decoration="undefined" x="432.5" y="94.5" text-anchor="middle" dominant-baseline="central" transform="matrix(1 0 0 1 -38 -38)">Course</text></g></g><g><g><path fill="none" stroke="none"/><text fill="#000000" stroke="none" font-family="Arial" font-size="15px" font-style="normal" font-weight="normal" text-decoration="undefined" x="381" y="119.5" text-anchor="start" dominant-baseline="central" transform="matrix(1 0 0 1 -38 -38)">-uuid: string</text></g></g><g><g><path fill="none" stroke="none"/><text fill="#000000" stroke="none" font-family="Arial" font-size="15px" font-style="normal" font-weight="normal" text-decoration="undefined" x="381" y="136.5" text-anchor="start" dominant-baseline="central" transform="matrix(1 0 0 1 -38 -38)">-id: number</text></g></g><g><g><path fill="none" stroke="none"/><text fill="#000000" stroke="none" font-family="Arial" font-size="15px" font-style="normal" font-weight="normal" text-decoration="undefined" x="381" y="153.5" text-anchor="start" dominant-baseline="central" transform="matrix(1 0 0 1 -38 -38)">-name: string</text></g></g><g><rect fill="#C0C0C0" stroke="none" x="655" y="87" width="336" height="137" transform="matrix(1 0 0 1 -38 -38)" fill-opacity="0.2"/></g><g><rect fill="#FFFFD8" stroke="none" x="648" y="80" width="336" height="137" transform="matrix(1 0 0 1 -38 -38)"/></g><g><path fill="none" stroke="#000000" paint-order="fill stroke markers" d=" M 610 42 L 946 42 L 946 179 L 610 179 L 610 42 Z Z" stroke-miterlimit="10" stroke-dasharray=""/></g><g><path fill="none" stroke="#000000" paint-order="fill stroke markers" d=" M 610 69 L 946 69" stroke-miterlimit="10" stroke-dasharray=""/></g><g><g><path fill="none" stroke="none"/><text fill="#000000" stroke="none" font-family="Arial" font-size="15px" font-style="normal" font-weight="bold" text-decoration="undefined" x="816.5" y="94.5" text-anchor="middle" dominant-baseline="central" transform="matrix(1 0 0 1 -38 -38)">Exercise</text></g></g><g><g><path fill="none" stroke="none"/><text fill="#000000" stroke="none" font-family="Arial" font-size="15px" font-style="normal" font-weight="normal" text-decoration="undefined" x="653" y="119.5" text-anchor="start" dominant-baseline="central" transform="matrix(1 0 0 1 -38 -38)">-uuid: string</text></g></g><g><g><path fill="none" stroke="none"/><text fill="#000000" stroke="none" font-family="Arial" font-size="15px" font-style="normal" font-weight="normal" text-decoration="undefined" x="653" y="136.5" text-anchor="start" dominant-baseline="central" transform="matrix(1 0 0 1 -38 -38)">-id: number</text></g></g><g><g><path fill="none" stroke="none"/><text fill="#000000" stroke="none" font-family="Arial" font-size="15px" font-style="normal" font-weight="normal" text-decoration="undefined" x="653" y="153.5" text-anchor="start" dominant-baseline="central" transform="matrix(1 0 0 1 -38 -38)">-name: string</text></g></g><g><g><path fill="none" stroke="none"/><text fill="#000000" stroke="none" font-family="Arial" font-size="15px" font-style="normal" font-weight="normal" text-decoration="undefined" x="653" y="170.5" text-anchor="start" dominant-baseline="central" transform="matrix(1 0 0 1 -38 -38)">-includesTeacherSolution: boolean</text></g></g><g><g><path fill="none" stroke="none"/><text fill="#000000" stroke="none" font-family="Arial" font-size="15px" font-style="normal" font-weight="normal" text-decoration="undefined" x="653" y="187.5" text-anchor="start" dominant-baseline="central" transform="matrix(1 0 0 1 -38 -38)">-solutionIsPublic: boolean</text></g></g><g><g><path fill="none" stroke="none"/><text fill="#000000" stroke="none" font-family="Arial" font-size="15px" font-style="normal" font-weight="normal" text-decoration="undefined" x="653" y="204.5" text-anchor="start" dominant-baseline="central" transform="matrix(1 0 0 1 -38 -38)">-allowEditionAfterSolutionDownloaded: boolean</text></g></g><g><rect fill="#C0C0C0" stroke="none" x="767" y="311" width="112" height="69" transform="matrix(1 0 0 1 -38 -38)" fill-opacity="0.2"/></g><g><rect fill="#FFFFD8" stroke="none" x="760" y="304" width="112" height="69" transform="matrix(1 0 0 1 -38 -38)"/></g><g><path fill="none" stroke="#000000" paint-order="fill stroke markers" d=" M 722 266 L 834 266 L 834 335 L 722 335 L 722 266 Z Z" stroke-miterlimit="10" stroke-dasharray=""/></g><g><path fill="none" stroke="#000000" paint-order="fill stroke markers" d=" M 722 293 L 834 293" stroke-miterlimit="10" stroke-dasharray=""/></g><g><g><path fill="none" stroke="none"/><text fill="#000000" stroke="none" font-family="Arial" font-size="15px" font-style="normal" font-weight="bold" text-decoration="undefined" x="816.5" y="318.5" text-anchor="middle" dominant-baseline="central" transform="matrix(1 0 0 1 -38 -38)">ExerciseFile</text></g></g><g><g><path fill="none" stroke="none"/><text fill="#000000" stroke="none" font-family="Arial" font-size="15px" font-style="normal" font-weight="normal" text-decoration="undefined" x="765" y="343.5" text-anchor="start" dominant-baseline="central" transform="matrix(1 0 0 1 -38 -38)">-id: number</text></g></g><g><g><path fill="none" stroke="none"/><text fill="#000000" stroke="none" font-family="Arial" font-size="15px" font-style="normal" font-weight="normal" text-decoration="undefined" x="765" y="360.5" text-anchor="start" dominant-baseline="central" transform="matrix(1 0 0 1 -38 -38)">-path: string</text></g></g><g><rect fill="#C0C0C0" stroke="none" x="399" y="487" width="155.95166015625" height="86" transform="matrix(1 0 0 1 -38 -38)" fill-opacity="0.2"/></g><g><rect fill="#FFFFD8" stroke="none" x="392" y="480" width="155.95166015625" height="86" transform="matrix(1 0 0 1 -38 -38)"/></g><g><path fill="none" stroke="#000000" paint-order="fill stroke markers" d=" M 354 442 L 509.95166015625 442 L 509.95166015625 528 L 354 528 L 354 442 Z Z" stroke-miterlimit="10" stroke-dasharray=""/></g><g><path fill="none" stroke="#000000" paint-order="fill stroke markers" d=" M 354 469 L 509.95166015625 469" stroke-miterlimit="10" stroke-dasharray=""/></g><g><g><path fill="none" stroke="none"/><text fill="#000000" stroke="none" font-family="Arial" font-size="15px" font-style="normal" font-weight="bold" text-decoration="undefined" x="470.475830078125" y="494.5" text-anchor="middle" dominant-baseline="central" transform="matrix(1 0 0 1 -38 -38)">Comment</text></g></g><g><g><path fill="none" stroke="none"/><text fill="#000000" stroke="none" font-family="Arial" font-size="15px" font-style="normal" font-weight="normal" text-decoration="undefined" x="397" y="519.5" text-anchor="start" dominant-baseline="central" transform="matrix(1 0 0 1 -38 -38)">-id: number</text></g></g><g><g><path fill="none" stroke="none"/><text fill="#000000" stroke="none" font-family="Arial" font-size="15px" font-style="normal" font-weight="normal" text-decoration="undefined" x="397" y="536.5" text-anchor="start" dominant-baseline="central" transform="matrix(1 0 0 1 -38 -38)">-body: string</text></g></g><g><g><path fill="none" stroke="none"/><text fill="#000000" stroke="none" font-family="Arial" font-size="15px" font-style="normal" font-weight="normal" text-decoration="undefined" x="397" y="553.5" text-anchor="start" dominant-baseline="central" transform="matrix(1 0 0 1 -38 -38)">-author: string</text></g></g><g><rect fill="#C0C0C0" stroke="none" x="735" y="471" width="173.2744140625" height="103" transform="matrix(1 0 0 1 -38 -38)" fill-opacity="0.2"/></g><g><rect fill="#FFFFD8" stroke="none" x="728" y="464" width="173.2744140625" height="103" transform="matrix(1 0 0 1 -38 -38)"/></g><g><path fill="none" stroke="#000000" paint-order="fill stroke markers" d=" M 690 426 L 863.2744140625 426 L 863.2744140625 529 L 690 529 L 690 426 Z Z" stroke-miterlimit="10" stroke-dasharray=""/></g><g><path fill="none" stroke="#000000" paint-order="fill stroke markers" d=" M 690 453 L 863.2744140625 453" stroke-miterlimit="10" stroke-dasharray=""/></g><g><g><path fill="none" stroke="none"/><text fill="#000000" stroke="none" font-family="Arial" font-size="15px" font-style="normal" font-weight="bold" text-decoration="undefined" x="815.13720703125" y="478.5" text-anchor="middle" dominant-baseline="central" transform="matrix(1 0 0 1 -38 -38)">CommentThread</text></g></g><g><g><path fill="none" stroke="none"/><text fill="#000000" stroke="none" font-family="Arial" font-size="15px" font-style="normal" font-weight="normal" text-decoration="undefined" x="733" y="503.5" text-anchor="start" dominant-baseline="central" transform="matrix(1 0 0 1 -38 -38)">-id: number</text></g></g><g><g><path fill="none" stroke="none"/><text fill="#000000" stroke="none" font-family="Arial" font-size="15px" font-style="normal" font-weight="normal" text-decoration="undefined" x="733" y="520.5" text-anchor="start" dominant-baseline="central" transform="matrix(1 0 0 1 -38 -38)">-file: ExerciseFile</text></g></g><g><g><path fill="none" stroke="none"/><text fill="#000000" stroke="none" font-family="Arial" font-size="15px" font-style="normal" font-weight="normal" text-decoration="undefined" x="733" y="537.5" text-anchor="start" dominant-baseline="central" transform="matrix(1 0 0 1 -38 -38)">-line: number</text></g></g><g><g><path fill="none" stroke="none"/><text fill="#000000" stroke="none" font-family="Arial" font-size="15px" font-style="normal" font-weight="normal" text-decoration="undefined" x="733" y="554.5" text-anchor="start" dominant-baseline="central" transform="matrix(1 0 0 1 -38 -38)">-lineText: string</text></g></g><g><rect fill="#C0C0C0" stroke="none" x="399" y="247" width="161" height="69" transform="matrix(1 0 0 1 -38 -38)" fill-opacity="0.2"/></g><g><rect fill="#FFFFD8" stroke="none" x="392" y="240" width="161" height="69" transform="matrix(1 0 0 1 -38 -38)"/></g><g><path fill="none" stroke="#000000" paint-order="fill stroke markers" d=" M 354 202 L 515 202 L 515 271 L 354 271 L 354 202 Z Z" stroke-miterlimit="10" stroke-dasharray=""/></g><g><path fill="none" stroke="#000000" paint-order="fill stroke markers" d=" M 354 229 L 515 229" stroke-miterlimit="10" stroke-dasharray=""/></g><g><g><path fill="none" stroke="none"/><text fill="#000000" stroke="none" font-family="Arial" font-size="15px" font-style="normal" font-weight="bold" text-decoration="undefined" x="473" y="254.5" text-anchor="middle" dominant-baseline="central" transform="matrix(1 0 0 1 -38 -38)">ExerciseUserInfo</text></g></g><g><g><path fill="none" stroke="none"/><text fill="#000000" stroke="none" font-family="Arial" font-size="15px" font-style="normal" font-weight="normal" text-decoration="undefined" x="397" y="279.5" text-anchor="start" dominant-baseline="central" transform="matrix(1 0 0 1 -38 -38)">-id: number</text></g></g><g><g><path fill="none" stroke="none"/><text fill="#000000" stroke="none" font-family="Arial" font-size="15px" font-style="normal" font-weight="normal" text-decoration="undefined" x="397" y="296.5" text-anchor="start" dominant-baseline="central" transform="matrix(1 0 0 1 -38 -38)">-status</text></g></g><g><rect fill="#C0C0C0" stroke="none" x="55" y="87" width="128" height="137" transform="matrix(1 0 0 1 -38 -38)" fill-opacity="0.2"/></g><g><rect fill="#FFFFD8" stroke="none" x="48" y="80" width="128" height="137" transform="matrix(1 0 0 1 -38 -38)"/></g><g><path fill="none" stroke="#000000" paint-order="fill stroke markers" d=" M 10 42 L 138 42 L 138 179 L 10 179 L 10 42 Z Z" stroke-miterlimit="10" stroke-dasharray=""/></g><g><path fill="none" stroke="#000000" paint-order="fill stroke markers" d=" M 10 69 L 138 69" stroke-miterlimit="10" stroke-dasharray=""/></g><g><g><path fill="none" stroke="none"/><text fill="#000000" stroke="none" font-family="Arial" font-size="15px" font-style="normal" font-weight="bold" text-decoration="undefined" x="112.5" y="94.5" text-anchor="middle" dominant-baseline="central" transform="matrix(1 0 0 1 -38 -38)">User</text></g></g><g><g><path fill="none" stroke="none"/><text fill="#000000" stroke="none" font-family="Arial" font-size="15px" font-style="normal" font-weight="normal" text-decoration="undefined" x="53" y="119.5" text-anchor="start" dominant-baseline="central" transform="matrix(1 0 0 1 -38 -38)">-id: number</text></g></g><g><g><path fill="none" stroke="none"/><text fill="#000000" stroke="none" font-family="Arial" font-size="15px" font-style="normal" font-weight="normal" text-decoration="undefined" x="53" y="136.5" text-anchor="start" dominant-baseline="central" transform="matrix(1 0 0 1 -38 -38)">-email: string</text></g></g><g><g><path fill="none" stroke="none"/><text fill="#000000" stroke="none" font-family="Arial" font-size="15px" font-style="normal" font-weight="normal" text-decoration="undefined" x="53" y="153.5" text-anchor="start" dominant-baseline="central" transform="matrix(1 0 0 1 -38 -38)">-username: string</text></g></g><g><g><path fill="none" stroke="none"/><text fill="#000000" stroke="none" font-family="Arial" font-size="15px" font-style="normal" font-weight="normal" text-decoration="undefined" x="53" y="170.5" text-anchor="start" dominant-baseline="central" transform="matrix(1 0 0 1 -38 -38)">-password: string</text></g></g><g><g><path fill="none" stroke="none"/><text fill="#000000" stroke="none" font-family="Arial" font-size="15px" font-style="normal" font-weight="normal" text-decoration="undefined" x="53" y="187.5" text-anchor="start" dominant-baseline="central" transform="matrix(1 0 0 1 -38 -38)">-name: string</text></g></g><g><g><path fill="none" stroke="none"/><text fill="#000000" stroke="none" font-family="Arial" font-size="15px" font-style="normal" font-weight="normal" text-decoration="undefined" x="53" y="204.5" text-anchor="start" dominant-baseline="central" transform="matrix(1 0 0 1 -38 -38)">-surname: string</text></g></g><g><rect fill="#C0C0C0" stroke="none" x="55" y="287" width="125.0341796875" height="69" transform="matrix(1 0 0 1 -38 -38)" fill-opacity="0.2"/></g><g><rect fill="#FFFFD8" stroke="none" x="48" y="280" width="125.0341796875" height="69" transform="matrix(1 0 0 1 -38 -38)"/></g><g><path fill="none" stroke="#000000" paint-order="fill stroke markers" d=" M 10 242 L 135.0341796875 242 L 135.0341796875 311 L 10 311 L 10 242 Z Z" stroke-miterlimit="10" stroke-dasharray=""/></g><g><path fill="none" stroke="#000000" paint-order="fill stroke markers" d=" M 10 269 L 135.0341796875 269" stroke-miterlimit="10" stroke-dasharray=""/></g><g><g><path fill="none" stroke="none"/><text fill="#000000" stroke="none" font-family="Arial" font-size="15px" font-style="normal" font-weight="bold" text-decoration="undefined" x="111.01708984375" y="294.5" text-anchor="middle" dominant-baseline="central" transform="matrix(1 0 0 1 -38 -38)">Role</text></g></g><g><g><path fill="none" stroke="none"/><text fill="#000000" stroke="none" font-family="Arial" font-size="15px" font-style="normal" font-weight="normal" text-decoration="undefined" x="53" y="319.5" text-anchor="start" dominant-baseline="central" transform="matrix(1 0 0 1 -38 -38)">-id: number</text></g></g><g><g><path fill="none" stroke="none"/><text fill="#000000" stroke="none" font-family="Arial" font-size="15px" font-style="normal" font-weight="normal" text-decoration="undefined" x="53" y="336.5" text-anchor="start" dominant-baseline="central" transform="matrix(1 0 0 1 -38 -38)">-roleName: string</text></g></g><g><path fill="none" stroke="#000000" paint-order="fill stroke markers" d=" M 610 58 L 450 58" stroke-miterlimit="10" stroke-dasharray=""/></g><g><path fill="#000000" stroke="none" paint-order="stroke fill markers" d=" M 460.16267485762415 53.790482243984016 L 450 58 L 460.16267485762415 62.209517756015984 L 472 58"/></g><g><path fill="none" stroke="#000000" paint-order="fill stroke markers" d=" M 460.16267485762415 53.790482243984016 L 450 58 L 460.16267485762415 62.209517756015984 L 472 58 L 460.16267485762415 53.790482243984016" stroke-miterlimit="10" stroke-dasharray=""/></g><g><rect fill="#ffffff" stroke="none" x="597" y="103" width="50.01708984375" height="15" transform="matrix(1 0 0 1 -38 -38)"/></g><g><g><path fill="none" stroke="none"/><text fill="#000000" stroke="none" font-family="Arial" font-size="15px" font-style="normal" font-weight="normal" text-decoration="undefined" x="622.008544921875" y="110.5" text-anchor="middle" dominant-baseline="central" transform="matrix(1 0 0 1 -38 -38)">-course</text></g></g><g><rect fill="#ffffff" stroke="none" x="622" y="76" width="8.34228515625" height="15" transform="matrix(1 0 0 1 -38 -38)"/></g><g><g><path fill="none" stroke="none"/><text fill="#000000" stroke="none" font-family="Arial" font-size="15px" font-style="normal" font-weight="normal" text-decoration="undefined" x="626.171142578125" y="83.5" text-anchor="middle" dominant-baseline="central" transform="matrix(1 0 0 1 -38 -38)">1</text></g></g><g><rect fill="#ffffff" stroke="none" x="496" y="101" width="68.349609375" height="15" transform="matrix(1 0 0 1 -38 -38)"/></g><g><g><path fill="none" stroke="none"/><text fill="#000000" stroke="none" font-family="Arial" font-size="15px" font-style="normal" font-weight="normal" text-decoration="undefined" x="530.1748046875" y="108.5" text-anchor="middle" dominant-baseline="central" transform="matrix(1 0 0 1 -38 -38)">-exercises</text></g></g><g><rect fill="#ffffff" stroke="none" x="498" y="76" width="22.5146484375" height="15" transform="matrix(1 0 0 1 -38 -38)"/></g><g><g><path fill="none" stroke="none"/><text fill="#000000" stroke="none" font-family="Arial" font-size="15px" font-style="normal" font-weight="normal" text-decoration="undefined" x="509.25732421875" y="83.5" text-anchor="middle" dominant-baseline="central" transform="matrix(1 0 0 1 -38 -38)">0..*</text></g></g><g><path fill="none" stroke="#000000" paint-order="fill stroke markers" d=" M 138 114 L 338 114" stroke-miterlimit="10" stroke-dasharray=""/></g><g><rect fill="#ffffff" stroke="none" x="184" y="128" width="57.51708984375" height="15" transform="matrix(1 0 0 1 -38 -38)"/></g><g><g><path fill="none" stroke="none"/><text fill="#000000" stroke="none" font-family="Arial" font-size="15px" font-style="normal" font-weight="normal" text-decoration="undefined" x="212.758544921875" y="135.5" text-anchor="middle" dominant-baseline="central" transform="matrix(1 0 0 1 -38 -38)">-courses</text></g></g><g><rect fill="#ffffff" stroke="none" x="184" y="155" width="22.5146484375" height="15" transform="matrix(1 0 0 1 -38 -38)"/></g><g><g><path fill="none" stroke="none"/><text fill="#000000" stroke="none" font-family="Arial" font-size="15px" font-style="normal" font-weight="normal" text-decoration="undefined" x="195.25732421875" y="162.5" text-anchor="middle" dominant-baseline="central" transform="matrix(1 0 0 1 -38 -38)">0..*</text></g></g><g><rect fill="#ffffff" stroke="none" x="264" y="128" width="102.5390625" height="15" transform="matrix(1 0 0 1 -38 -38)"/></g><g><g><path fill="none" stroke="none"/><text fill="#000000" stroke="none" font-family="Arial" font-size="15px" font-style="normal" font-weight="normal" text-decoration="undefined" x="315.26953125" y="135.5" text-anchor="middle" dominant-baseline="central" transform="matrix(1 0 0 1 -38 -38)">-usersInCourse</text></g></g><g><rect fill="#ffffff" stroke="none" x="343" y="157" width="22.5146484375" height="15" transform="matrix(1 0 0 1 -38 -38)"/></g><g><g><path fill="none" stroke="none"/><text fill="#000000" stroke="none" font-family="Arial" font-size="15px" font-style="normal" font-weight="normal" text-decoration="undefined" x="354.25732421875" y="164.5" text-anchor="middle" dominant-baseline="central" transform="matrix(1 0 0 1 -38 -38)">0..*</text></g></g><g><path fill="none" stroke="#000000" paint-order="fill stroke markers" d=" M 138 58 L 338 58" stroke-miterlimit="10" stroke-dasharray=""/></g><g><path fill="none" stroke="#000000" paint-order="fill stroke markers" d=" M 327.83732514237585 62.209517756015984 L 338 58 L 327.83732514237585 53.790482243984016" stroke-miterlimit="10" stroke-dasharray=""/></g><g><rect fill="#ffffff" stroke="none" x="318" y="73" width="51.6796875" height="15" transform="matrix(1 0 0 1 -38 -38)"/></g><g><g><path fill="none" stroke="none"/><text fill="#000000" stroke="none" font-family="Arial" font-size="15px" font-style="normal" font-weight="normal" text-decoration="undefined" x="343.83984375" y="80.5" text-anchor="middle" dominant-baseline="central" transform="matrix(1 0 0 1 -38 -38)">-creator</text></g></g><g><rect fill="#ffffff" stroke="none" x="350" y="101" width="8.34228515625" height="15" transform="matrix(1 0 0 1 -38 -38)"/></g><g><g><path fill="none" stroke="none"/><text fill="#000000" stroke="none" font-family="Arial" font-size="15px" font-style="normal" font-weight="normal" text-decoration="undefined" x="354.171142578125" y="108.5" text-anchor="middle" dominant-baseline="central" transform="matrix(1 0 0 1 -38 -38)">1</text></g></g><g><path fill="none" stroke="#000000" paint-order="fill stroke markers" d=" M 74 242 L 74 179" stroke-miterlimit="10" stroke-dasharray=""/></g><g><rect fill="#ffffff" stroke="none" x="72" y="232" width="37.50732421875" height="15" transform="matrix(1 0 0 1 -38 -38)"/></g><g><g><path fill="none" stroke="none"/><text fill="#000000" stroke="none" font-family="Arial" font-size="15px" font-style="normal" font-weight="normal" text-decoration="undefined" x="90.753662109375" y="239.5" text-anchor="middle" dominant-baseline="central" transform="matrix(1 0 0 1 -38 -38)">-roles</text></g></g><g><rect fill="#ffffff" stroke="none" x="113" y="231" width="22.5146484375" height="15" transform="matrix(1 0 0 1 -38 -38)"/></g><g><g><path fill="none" stroke="none"/><text fill="#000000" stroke="none" font-family="Arial" font-size="15px" font-style="normal" font-weight="normal" text-decoration="undefined" x="124.25732421875" y="238.5" text-anchor="middle" dominant-baseline="central" transform="matrix(1 0 0 1 -38 -38)">1..*</text></g></g><g><path fill="none" stroke="#000000" paint-order="fill stroke markers" d=" M 74 42 L 74 10 L 978 10 L 978 314 L 834 314" stroke-miterlimit="10" stroke-dasharray=""/></g><g><path fill="none" stroke="#000000" paint-order="fill stroke markers" d=" M 69.79048224398402 31.837325142375846 L 74 42 L 78.20951775601598 31.837325142375846" stroke-miterlimit="10" stroke-dasharray=""/></g><g><rect fill="#ffffff" stroke="none" x="960" y="328" width="50.93994140625" height="15" transform="matrix(1 0 0 1 -38 -38)"/></g><g><g><path fill="none" stroke="none"/><text fill="#000000" stroke="none" font-family="Arial" font-size="15px" font-style="normal" font-weight="normal" text-decoration="undefined" x="985.469970703125" y="335.5" text-anchor="middle" dominant-baseline="central" transform="matrix(1 0 0 1 -38 -38)">+owner</text></g></g><g><path fill="none" stroke="#000000" paint-order="fill stroke markers" d=" M 642 179 L 642 282 L 722 282" stroke-miterlimit="10" stroke-dasharray=""/></g><g><path fill="#000000" stroke="none" paint-order="stroke fill markers" d=" M 646.209517756016 189.16267485762415 L 642 179 L 637.790482243984 189.16267485762415 L 642 201"/></g><g><path fill="none" stroke="#000000" paint-order="fill stroke markers" d=" M 646.209517756016 189.16267485762415 L 642 179 L 637.790482243984 189.16267485762415 L 642 201 L 646.209517756016 189.16267485762415" stroke-miterlimit="10" stroke-dasharray=""/></g><g><rect fill="#ffffff" stroke="none" x="613" y="248" width="62.52685546875" height="15" transform="matrix(1 0 0 1 -38 -38)"/></g><g><g><path fill="none" stroke="none"/><text fill="#000000" stroke="none" font-family="Arial" font-size="15px" font-style="normal" font-weight="normal" text-decoration="undefined" x="644.263427734375" y="255.5" text-anchor="middle" dominant-baseline="central" transform="matrix(1 0 0 1 -38 -38)">-template</text></g></g><g><rect fill="#ffffff" stroke="none" x="654" y="232" width="22.5146484375" height="15" transform="matrix(1 0 0 1 -38 -38)"/></g><g><g><path fill="none" stroke="none"/><text fill="#000000" stroke="none" font-family="Arial" font-size="15px" font-style="normal" font-weight="normal" text-decoration="undefined" x="665.25732421875" y="239.5" text-anchor="middle" dominant-baseline="central" transform="matrix(1 0 0 1 -38 -38)">1..*</text></g></g><g><path fill="none" stroke="#000000" paint-order="fill stroke markers" d=" M 778 266 L 778 179" stroke-miterlimit="10" stroke-dasharray=""/></g><g><path fill="#FFFFFF" stroke="none" paint-order="stroke fill markers" d=" M 782.209517756016 189.16267485762415 L 778 179 L 773.790482243984 189.16267485762415 L 778 201"/></g><g><path fill="none" stroke="#000000" paint-order="fill stroke markers" d=" M 782.209517756016 189.16267485762415 L 778 179 L 773.790482243984 189.16267485762415 L 778 201 L 782.209517756016 189.16267485762415" stroke-miterlimit="10" stroke-dasharray=""/></g><g><rect fill="#ffffff" stroke="none" x="752" y="239" width="56.69677734375" height="15" transform="matrix(1 0 0 1 -38 -38)"/></g><g><g><path fill="none" stroke="none"/><text fill="#000000" stroke="none" font-family="Arial" font-size="15px" font-style="normal" font-weight="normal" text-decoration="undefined" x="780.348388671875" y="246.5" text-anchor="middle" dominant-baseline="central" transform="matrix(1 0 0 1 -38 -38)">-solution</text></g></g><g><rect fill="#ffffff" stroke="none" x="776" y="223" width="22.5146484375" height="15" transform="matrix(1 0 0 1 -38 -38)"/></g><g><g><path fill="none" stroke="none"/><text fill="#000000" stroke="none" font-family="Arial" font-size="15px" font-style="normal" font-weight="normal" text-decoration="undefined" x="787.25732421875" y="230.5" text-anchor="middle" dominant-baseline="central" transform="matrix(1 0 0 1 -38 -38)">0..*</text></g></g><g><path fill="none" stroke="#000000" paint-order="fill stroke markers" d=" M 834 282 L 914 282 L 914 179" stroke-miterlimit="10" stroke-dasharray=""/></g><g><path fill="#FFFFFF" stroke="none" paint-order="stroke fill markers" d=" M 918.209517756016 189.16267485762415 L 914 179 L 909.790482243984 189.16267485762415 L 914 201"/></g><g><path fill="none" stroke="#000000" paint-order="fill stroke markers" d=" M 918.209517756016 189.16267485762415 L 914 179 L 909.790482243984 189.16267485762415 L 914 201 L 918.209517756016 189.16267485762415" stroke-miterlimit="10" stroke-dasharray=""/></g><g><rect fill="#ffffff" stroke="none" x="880" y="240" width="65.8447265625" height="15" transform="matrix(1 0 0 1 -38 -38)"/></g><g><g><path fill="none" stroke="none"/><text fill="#000000" stroke="none" font-family="Arial" font-size="15px" font-style="normal" font-weight="normal" text-decoration="undefined" x="912.92236328125" y="247.5" text-anchor="middle" dominant-baseline="central" transform="matrix(1 0 0 1 -38 -38)">-userFiles</text></g></g><g><rect fill="#ffffff" stroke="none" x="920" y="223" width="22.5146484375" height="15" transform="matrix(1 0 0 1 -38 -38)"/></g><g><g><path fill="none" stroke="none"/><text fill="#000000" stroke="none" font-family="Arial" font-size="15px" font-style="normal" font-weight="normal" text-decoration="undefined" x="931.25732421875" y="230.5" text-anchor="middle" dominant-baseline="central" transform="matrix(1 0 0 1 -38 -38)">0..*</text></g></g><g><path fill="none" stroke="#000000" paint-order="fill stroke markers" d=" M 378 202 L 378 154 L 138 154" stroke-miterlimit="10" stroke-dasharray=""/></g><g><path fill="none" stroke="#000000" paint-order="fill stroke markers" d=" M 148.16267485762415 149.790482243984 L 138 154 L 148.16267485762415 158.209517756016" stroke-miterlimit="10" stroke-dasharray=""/></g><g><rect fill="#ffffff" stroke="none" x="374" y="206" width="34.1748046875" height="15" transform="matrix(1 0 0 1 -38 -38)"/></g><g><g><path fill="none" stroke="none"/><text fill="#000000" stroke="none" font-family="Arial" font-size="15px" font-style="normal" font-weight="normal" text-decoration="undefined" x="391.08740234375" y="213.5" text-anchor="middle" dominant-baseline="central" transform="matrix(1 0 0 1 -38 -38)">-user</text></g></g><g><rect fill="#ffffff" stroke="none" x="399" y="221" width="8.34228515625" height="15" transform="matrix(1 0 0 1 -38 -38)"/></g><g><g><path fill="none" stroke="none"/><text fill="#000000" stroke="none" font-family="Arial" font-size="15px" font-style="normal" font-weight="normal" text-decoration="undefined" x="403.171142578125" y="228.5" text-anchor="middle" dominant-baseline="central" transform="matrix(1 0 0 1 -38 -38)">1</text></g></g><g><path fill="none" stroke="#000000" paint-order="fill stroke markers" d=" M 490 202 L 490 154 L 610 154" stroke-miterlimit="10" stroke-dasharray=""/></g><g><path fill="none" stroke="#000000" paint-order="fill stroke markers" d=" M 599.8373251423759 158.209517756016 L 610 154 L 599.8373251423758 149.790482243984" stroke-miterlimit="10" stroke-dasharray=""/></g><g><path fill="none" stroke="#000000" paint-order="fill stroke markers" d=" M 485.790482243984 191.83732514237585 L 490 202 L 494.209517756016 191.83732514237585" stroke-miterlimit="10" stroke-dasharray=""/></g><g><rect fill="#ffffff" stroke="none" x="533" y="207" width="60.849609375" height="15" transform="matrix(1 0 0 1 -38 -38)"/></g><g><g><path fill="none" stroke="none"/><text fill="#000000" stroke="none" font-family="Arial" font-size="15px" font-style="normal" font-weight="normal" text-decoration="undefined" x="563.4248046875" y="214.5" text-anchor="middle" dominant-baseline="central" transform="matrix(1 0 0 1 -38 -38)">-exercise</text></g></g><g><rect fill="#ffffff" stroke="none" x="531" y="223" width="19.5126953125" height="15" transform="matrix(1 0 0 1 -38 -38)"/></g><g><g><path fill="none" stroke="none"/><text fill="#000000" stroke="none" font-family="Arial" font-size="15px" font-style="normal" font-weight="normal" text-decoration="undefined" x="540.75634765625" y="230.5" text-anchor="middle" dominant-baseline="central" transform="matrix(1 0 0 1 -38 -38)">1</text></g></g><g><rect fill="#ffffff" stroke="none" x="581" y="169" width="59.1943359375" height="15" transform="matrix(1 0 0 1 -38 -38)"/></g><g><g><path fill="none" stroke="none"/><text fill="#000000" stroke="none" font-family="Arial" font-size="15px" font-style="normal" font-weight="normal" text-decoration="undefined" x="610.59716796875" y="176.5" text-anchor="middle" dominant-baseline="central" transform="matrix(1 0 0 1 -38 -38)">-userInfo</text></g></g><g><rect fill="#ffffff" stroke="none" x="615" y="197" width="22.5146484375" height="15" transform="matrix(1 0 0 1 -38 -38)"/></g><g><g><path fill="none" stroke="none"/><text fill="#000000" stroke="none" font-family="Arial" font-size="15px" font-style="normal" font-weight="normal" text-decoration="undefined" x="626.25732421875" y="204.5" text-anchor="middle" dominant-baseline="central" transform="matrix(1 0 0 1 -38 -38)">0..*</text></g></g><g><rect fill="#C0C0C0" stroke="none" x="399" y="359" width="161" height="101" transform="matrix(1 0 0 1 -38 -38)" fill-opacity="0.2"/></g><g><rect fill="#FFFFD8" stroke="none" x="392" y="352" width="161" height="101" transform="matrix(1 0 0 1 -38 -38)"/></g><g><path fill="none" stroke="#000000" paint-order="fill stroke markers" d=" M 354 314 L 515 314 L 515 415 L 354 415 L 354 314 Z Z" stroke-miterlimit="10" stroke-dasharray=""/></g><g><path fill="none" stroke="#000000" paint-order="fill stroke markers" d=" M 354 356 L 515 356" stroke-miterlimit="10" stroke-dasharray=""/></g><g><g><path fill="none" stroke="none"/><text fill="#000000" stroke="none" font-family="Arial" font-size="15px" font-style="normal" font-weight="normal" text-decoration="undefined" x="473" y="364.5" text-anchor="middle" dominant-baseline="central" transform="matrix(1 0 0 1 -38 -38)">«enumeration»</text></g></g><g><g><path fill="none" stroke="none"/><text fill="#000000" stroke="none" font-family="Arial" font-size="15px" font-style="normal" font-weight="bold" text-decoration="undefined" x="473" y="381.5" text-anchor="middle" dominant-baseline="central" transform="matrix(1 0 0 1 -38 -38)">ExerciseStatus</text></g></g><g><g><path fill="none" stroke="none"/><text fill="#000000" stroke="none" font-family="Arial" font-size="15px" font-style="normal" font-weight="normal" text-decoration="undefined" x="397" y="406.5" text-anchor="start" dominant-baseline="central" transform="matrix(1 0 0 1 -38 -38)">NOT_STARTED</text></g></g><g><g><path fill="none" stroke="none"/><text fill="#000000" stroke="none" font-family="Arial" font-size="15px" font-style="normal" font-weight="normal" text-decoration="undefined" x="397" y="423.5" text-anchor="start" dominant-baseline="central" transform="matrix(1 0 0 1 -38 -38)">IN_PROGRESS</text></g></g><g><g><path fill="none" stroke="none"/><text fill="#000000" stroke="none" font-family="Arial" font-size="15px" font-style="normal" font-weight="normal" text-decoration="undefined" x="397" y="440.5" text-anchor="start" dominant-baseline="central" transform="matrix(1 0 0 1 -38 -38)">FINISHED</text></g></g><g><path fill="none" stroke="#000000" paint-order="fill stroke markers" d=" M 433 271 L 433 314" stroke-miterlimit="10" stroke-dasharray=""/></g><g><path fill="none" stroke="#000000" paint-order="fill stroke markers" d=" M 428.790482243984 303.83732514237585 L 433 314 L 437.209517756016 303.83732514237585" stroke-miterlimit="10" stroke-dasharray=""/></g><g><rect fill="#ffffff" stroke="none" x="477" y="316" width="45.0146484375" height="15" transform="matrix(1 0 0 1 -38 -38)"/></g><g><g><path fill="none" stroke="none"/><text fill="#000000" stroke="none" font-family="Arial" font-size="15px" font-style="normal" font-weight="normal" text-decoration="undefined" x="499.50732421875" y="323.5" text-anchor="middle" dominant-baseline="central" transform="matrix(1 0 0 1 -38 -38)">-status</text></g></g><g><rect fill="#ffffff" stroke="none" x="455" y="316" width="8.34228515625" height="15" transform="matrix(1 0 0 1 -38 -38)"/></g><g><g><path fill="none" stroke="none"/><text fill="#000000" stroke="none" font-family="Arial" font-size="15px" font-style="normal" font-weight="normal" text-decoration="undefined" x="459.171142578125" y="323.5" text-anchor="middle" dominant-baseline="central" transform="matrix(1 0 0 1 -38 -38)">1</text></g></g><g><path fill="none" stroke="#000000" paint-order="fill stroke markers" d=" M 778 426 L 778 335" stroke-miterlimit="10" stroke-dasharray=""/></g><g><path fill="#000000" stroke="none" paint-order="stroke fill markers" d=" M 782.209517756016 345.16267485762415 L 778 335 L 773.790482243984 345.16267485762415 L 778 357"/></g><g><path fill="none" stroke="#000000" paint-order="fill stroke markers" d=" M 782.209517756016 345.16267485762415 L 778 335 L 773.790482243984 345.16267485762415 L 778 357 L 782.209517756016 345.16267485762415" stroke-miterlimit="10" stroke-dasharray=""/></g><g><rect fill="#ffffff" stroke="none" x="727" y="380" width="74.1796875" height="15" transform="matrix(1 0 0 1 -38 -38)"/></g><g><g><path fill="none" stroke="none"/><text fill="#000000" stroke="none" font-family="Arial" font-size="15px" font-style="normal" font-weight="normal" text-decoration="undefined" x="764.08984375" y="387.5" text-anchor="middle" dominant-baseline="central" transform="matrix(1 0 0 1 -38 -38)">-comments</text></g></g><g><rect fill="#ffffff" stroke="none" x="822" y="381" width="22.5146484375" height="15" transform="matrix(1 0 0 1 -38 -38)"/></g><g><g><path fill="none" stroke="none"/><text fill="#000000" stroke="none" font-family="Arial" font-size="15px" font-style="normal" font-weight="normal" text-decoration="undefined" x="833.25732421875" y="388.5" text-anchor="middle" dominant-baseline="central" transform="matrix(1 0 0 1 -38 -38)">0..*</text></g></g><g><path fill="none" stroke="#000000" paint-order="fill stroke markers" d=" M 510 490 L 690 490" stroke-miterlimit="10" stroke-dasharray=""/></g><g><path fill="#000000" stroke="none" paint-order="stroke fill markers" d=" M 679.8373251423759 494.209517756016 L 690 490 L 679.8373251423758 485.790482243984 L 668 490"/></g><g><path fill="none" stroke="#000000" paint-order="fill stroke markers" d=" M 679.8373251423759 494.209517756016 L 690 490 L 679.8373251423758 485.790482243984 L 668 490 L 679.8373251423759 494.209517756016" stroke-miterlimit="10" stroke-dasharray=""/></g><g><rect fill="#ffffff" stroke="none" x="560" y="504" width="47.52685546875" height="15" transform="matrix(1 0 0 1 -38 -38)"/></g><g><g><path fill="none" stroke="none"/><text fill="#000000" stroke="none" font-family="Arial" font-size="15px" font-style="normal" font-weight="normal" text-decoration="undefined" x="583.763427734375" y="511.5" text-anchor="middle" dominant-baseline="central" transform="matrix(1 0 0 1 -38 -38)">-thread</text></g></g><g><rect fill="#ffffff" stroke="none" x="560" y="533" width="8.34228515625" height="15" transform="matrix(1 0 0 1 -38 -38)"/></g><g><g><path fill="none" stroke="none"/><text fill="#000000" stroke="none" font-family="Arial" font-size="15px" font-style="normal" font-weight="normal" text-decoration="undefined" x="564.171142578125" y="540.5" text-anchor="middle" dominant-baseline="central" transform="matrix(1 0 0 1 -38 -38)">1</text></g></g><g><rect fill="#ffffff" stroke="none" x="648" y="503" width="74.1796875" height="15" transform="matrix(1 0 0 1 -38 -38)"/></g><g><g><path fill="none" stroke="none"/><text fill="#000000" stroke="none" font-family="Arial" font-size="15px" font-style="normal" font-weight="normal" text-decoration="undefined" x="685.08984375" y="510.5" text-anchor="middle" dominant-baseline="central" transform="matrix(1 0 0 1 -38 -38)">-comments</text></g></g><g><rect fill="#ffffff" stroke="none" x="685" y="535" width="22.5146484375" height="15" transform="matrix(1 0 0 1 -38 -38)"/></g><g><g><path fill="none" stroke="none"/><text fill="#000000" stroke="none" font-family="Arial" font-size="15px" font-style="normal" font-weight="normal" text-decoration="undefined" x="696.25732421875" y="542.5" text-anchor="middle" dominant-baseline="central" transform="matrix(1 0 0 1 -38 -38)">1..*</text></g></g></g></svg>